<svg xmlns="http://www.w3.org/2000/svg" width="16" height="16" viewBox="0 0 16 16">
  <path fill="#003366" d="M15.8623112,7.25353959 C15.9999687,7.56973017 16,8.00007813 16,8.00007813 C16,8.00007813 16,8.43008233 15.8626549,8.74655417 C15.8626549,8.74655417 15.5714021,8.85571148 14.7313626,8.93336849 C13.7037276,9.02840067 13.393412,9.41365443 13.0519087,9.89306536 L13.0450336,9.89306536 C13.0024395,10.0072852 12.9568453,10.1196613 12.9066885,10.2298187 L12.9106573,10.2337874 C12.8134376,10.8144806 12.7602809,11.3062042 13.4197873,12.1000244 C13.9591988,12.7489058 14.0874501,13.031846 14.0874501,13.031846 C13.9609488,13.3527241 13.6567896,13.6569771 13.6567896,13.6569771 C13.6567896,13.6569771 13.3529429,13.9607926 13.032096,14.0876688 C13.032096,14.0876688 12.748812,13.9590426 12.0998369,13.4198811 C11.3059542,12.7604996 10.8141994,12.8133126 10.2335999,12.9108761 L10.2295999,12.906876 C10.1194738,12.957064 10.0070977,13.002252 9.89287786,13.0452211 L9.89287786,13.0520962 C9.41377943,13.393912 9.02821317,13.7039463 8.93318099,14.7315814 C8.85593023,15.5719333 8.74642916,15.8624987 8.74642916,15.8624987 C8.43023858,16.0001563 7.99989062,16.0001563 7.99989062,16.0001563 C7.99989062,16.0001563 7.57029268,16.0001563 7.25357084,15.8628737 C7.25357084,15.8628737 7.14425727,15.5716521 7.06660026,14.7316126 C6.97156808,13.7039776 6.58659557,13.3936308 6.10693464,13.0521275 L6.10693464,13.0452524 C5.99296478,13.0022832 5.88036993,12.957064 5.77018135,12.9069073 L5.76618131,12.9109073 C5.18576939,12.8140001 4.69379584,12.7605309 3.89997559,13.4199123 C3.25103175,13.9593863 2.96831024,14.0873251 2.96831024,14.0873251 C2.6474321,13.9612301 2.34299163,13.6569771 2.34299163,13.6569771 C2.34299163,13.6569771 2.03936367,13.3530679 1.91251868,13.0321898 C1.91251868,13.0321898 2.04114493,12.748937 2.5802752,12.1000244 C3.23962539,11.3061729 3.18690612,10.8144806 3.08915517,10.2337874 L3.09315521,10.2298187 C3.04290472,10.1196613 2.99756052,10.0072852 2.9547476,9.89306536 L2.94806004,9.89306536 C2.6060567,9.41399818 2.29605367,9.02840067 1.26844989,8.93336849 C0.428191682,8.85602398 0.137657594,8.74655417 0.137657594,8.74655417 C0,8.43042608 0,8.00007813 0,8.00007813 C0,8.00007813 0,7.57051143 0.137313841,7.25391459 C0.137313841,7.25391459 0.428535435,7.14444477 1.26863739,7.06675651 C2.29620992,6.97175558 2.60658795,6.58678307 2.94806004,6.10709089 L2.95471635,6.10709089 C2.99752927,5.99312103 3.04290472,5.88058868 3.09312396,5.7703376 L3.08912392,5.76636881 C3.18615611,5.18573814 3.23962539,4.69395209 2.58024395,3.90013184 C2.04076993,3.2513755 1.91267493,2.96846649 1.91267493,2.96846649 C2.03898866,2.64765086 2.34321038,2.34317913 2.34321038,2.34317913 C2.34321038,2.34317913 2.6469321,2.03948867 2.96796648,1.91283118 C2.96796648,1.91283118 3.25121925,2.04133243 3.90010059,2.58043145 C4.69395209,3.23981289 5.18573814,3.18706237 5.76633756,3.08934267 L5.7701501,3.09309271 C5.88033868,3.04309222 5.99293352,2.99771677 6.10690339,2.95493511 L6.10690339,2.94824754 C6.58618932,2.6065567 6.97153683,2.29620992 7.06656901,1.26857489 C7.14410102,0.428566685 7.25341458,0.137657594 7.25341458,0.137657594 C7.56969892,0 7.99989062,0 7.99989062,0 C7.99989062,0 8.42989482,0 8.74642916,0.137657594 C8.74642916,0.137657594 8.85552398,0.428535435 8.93318099,1.26857489 C9.02821317,2.29620992 9.41334193,2.6065567 9.89287786,2.94824754 L9.89287786,2.95493511 C10.0070977,2.99771677 10.1194738,3.04312347 10.2295999,3.09328021 L10.2335999,3.08934267 C10.8141994,3.18668737 11.3059854,3.23965664 12.0998369,2.5802127 C12.7487807,2.04092618 13.0316585,1.91267493 13.0316585,1.91267493 C13.3525366,2.03898866 13.6567896,2.34317913 13.6567896,2.34317913 C13.6567896,2.34317913 13.9609488,2.64727585 14.0874501,2.96831024 C14.0874501,2.96831024 13.9588551,3.251188 13.4197873,3.90013184 C12.7602809,4.69398334 12.8130939,5.18573814 12.9106573,5.76636881 L12.9066885,5.7703376 C12.9568765,5.88058868 13.0024707,5.99312103 13.0450336,6.10709089 L13.0519087,6.10709089 C13.3937245,6.58659557 13.7037276,6.97175558 14.7313626,7.06675651 C15.5718083,7.14428852 15.8623112,7.25353959 15.8623112,7.25353959 Z M8.00001253,10.9999749 C9.65687499,10.9999749 11,9.65687499 11,7.99998747 C11,6.34309996 9.65687499,5 8.00001253,5 C6.34312501,5 5,6.34309996 5,7.99998747 C5,9.65687499 6.34312501,10.9999749 8.00001253,10.9999749 Z"/>
</svg>
