<svg xmlns="http://www.w3.org/2000/svg" width="14" height="14" viewBox="0 0 14 14">
  <path fill="#FFFFFF" fill-rule="evenodd" d="M9.69230769,5.92307692 C9.69230769,4.88541148 9.32352132,3.99780016 8.5859375,3.26021635 C7.84835368,2.52263253 6.96074237,2.15384615 5.92307692,2.15384615 C4.88541148,2.15384615 3.99780016,2.52263253 3.26021635,3.26021635 C2.52263253,3.99780016 2.15384615,4.88541148 2.15384615,5.92307692 C2.15384615,6.96074237 2.52263253,7.84835368 3.26021635,8.5859375 C3.99780016,9.32352132 4.88541148,9.69230769 5.92307692,9.69230769 C6.96074237,9.69230769 7.84835368,9.32352132 8.5859375,8.5859375 C9.32352132,7.84835368 9.69230769,6.96074237 9.69230769,5.92307692 Z M14,12.9230769 C14,13.214745 13.8934306,13.4671464 13.6802885,13.6802885 C13.4671464,13.8934306 13.214745,14 12.9230769,14 C12.6201908,14 12.3677895,13.8934306 12.1658654,13.6802885 L9.28004808,10.8028846 C8.27603665,11.4984009 7.15705745,11.8461538 5.92307692,11.8461538 C5.12098958,11.8461538 4.35397001,11.6905064 3.62199519,11.3792067 C2.89002038,11.0679071 2.25901707,10.6472382 1.72896635,10.1171875 C1.19891562,9.58713677 0.778246749,8.95613347 0.466947115,8.22415865 C0.155647482,7.49218384 0,6.72516427 0,5.92307692 C0,5.12098958 0.155647482,4.35397001 0.466947115,3.62199519 C0.778246749,2.89002038 1.19891562,2.25901707 1.72896635,1.72896635 C2.25901707,1.19891562 2.89002038,0.778246749 3.62199519,0.466947115 C4.35397001,0.155647482 5.12098958,0 5.92307692,0 C6.72516427,0 7.49218384,0.155647482 8.22415865,0.466947115 C8.95613347,0.778246749 9.58713677,1.19891562 10.1171875,1.72896635 C10.6472382,2.25901707 11.0679071,2.89002038 11.3792067,3.62199519 C11.6905064,4.35397001 11.8461538,5.12098958 11.8461538,5.92307692 C11.8461538,7.15705745 11.4984009,8.27603665 10.8028846,9.28004808 L13.6887019,12.1658654 C13.896235,12.3733985 14,12.6257998 14,12.9230769 Z"/>
</svg>
