<svg xmlns="http://www.w3.org/2000/svg" width="32" height="32" viewBox="0 0 32 32">
  <path fill="#FFFFFF" fill-rule="evenodd" d="M23.66 22.66C23.43 22.89 23.16 23 22.85 23 22.52 23 22.25 22.89 22.03 22.66L19 20C17.93 20.75 16.67 21 15.34 21 14.49 21 13.66 20.83 12.88 20.5 12.1 20.17 11.42 19.72 10.85 19.15 10.29 18.58 9.83 17.9 9.5 17.12 9.17 16.34 9 15.21 9 14.35 9 13.49 9.17 12.66 9.5 11.88 9.83 11.1 10.28 10.42 10.85 9.85 11.42 9.29 12.1 8.83 12.88 8.5 13.66 8.17 14.49 8 15.34 8 16.2 8 17.33 8.17 18.12 8.5 18.9 8.83 19.58 9.29 20.15 9.85 20.71 10.42 21.17 11.1 21.5 11.88 21.83 12.66 22 13.49 22 14.35 22 15.67 21.75 16.93 21 18L23.67 21.03C23.89 21.26 24 21.53 24 21.84 24 22.16 23.89 22.43 23.66 22.66ZM20 14.5C20 13.26 19.56 12.2 18.68 11.32 17.8 10.44 16.74 10 15.5 10 14.26 10 13.2 10.44 12.32 11.32 11.44 12.2 11 13.26 11 14.5 11 15.74 11.44 16.8 12.32 17.68 13.2 18.56 14.26 19 15.5 19 16.74 19 17.8 18.56 18.68 17.68 19.56 16.8 20 15.74 20 14.5Z"/>
</svg>
