<svg xmlns="http://www.w3.org/2000/svg" width="66" height="66" viewBox="0 0 66 66">
  <g fill="none" fill-rule="evenodd">
    <circle cx="33" cy="33" r="33" fill="#7B003F"/>
    <path fill="#FFFFFF" d="M50.6898516,31.3203047 C50.6898516,31.3203047 50.0362266,31.0744922 48.1452422,30.9000469 C45.8330859,30.6862969 45.1355859,29.8196953 44.3665078,28.7408203 C44.2552734,28.4843906 44.1526875,28.2311953 44.0397656,27.9831328 C43.8291797,26.6677969 43.7103516,25.5613594 45.1942266,23.7752109 C46.4071172,22.3151016 46.6964531,21.6786328 46.6964531,21.6786328 C46.4118281,20.9563125 45.7274766,20.2721016 45.7274766,20.2721016 C45.7274766,20.2721016 45.0429141,19.5876797 44.3209453,19.3034766 C44.3209453,19.3034766 43.6844766,19.5920391 42.2243672,20.8054219 C40.4382187,22.2891562 39.3317109,22.1699766 38.025375,21.9509531 C37.7685937,21.8469609 37.51575,21.7447969 37.2587578,21.6485391 C36.1798125,20.8646953 35.3132812,20.1664219 35.0994609,17.8542656 C34.9247344,15.9641953 34.6792734,15.3097266 34.6792734,15.3097266 C33.9670781,15 32.9995781,15 32.9995781,15 C32.9995781,15 32.0316562,15 31.3200234,15.3097266 C31.3200234,15.3097266 31.0740703,15.9642656 30.899625,17.8542656 C30.6858047,20.1664219 29.8187813,20.8646953 28.7403984,21.6334922 C28.4839688,21.7447969 28.2306328,21.8468906 27.9827109,21.9593906 C26.6677969,22.1708203 25.5612891,22.2895078 23.7751406,20.8059141 C22.3151719,19.5929531 21.6778594,19.3038281 21.6778594,19.3038281 C20.9555391,19.5888047 20.2721719,20.2721016 20.2721719,20.2721016 C20.2721719,20.2721016 19.5876797,20.9571563 19.3034766,21.6789844 C19.3034766,21.6789844 19.5916875,22.3155234 20.8054922,23.7752109 C22.2890859,25.5612891 22.1687812,26.6677969 21.9504609,27.9742031 C21.8464687,28.2311953 21.744375,28.4843906 21.6480469,28.7408203 C20.8647656,29.8201172 20.1664219,30.6862969 17.8544063,30.9000469 C15.9641953,31.0748437 15.3089531,31.3211484 15.3089531,31.3211484 C15,32.0334844 15,33 15,33 C15,33 15,33.9682734 15.3097266,34.6795547 C15.3097266,34.6795547 15.9634219,34.9258594 17.8539844,35.0998828 C20.1660703,35.3137031 20.8635703,36.1812891 21.6330703,37.2591797 C21.7444453,37.5161719 21.8464687,37.7690156 21.9595312,38.0168672 C22.1704687,39.3323437 22.2890859,40.4386406 20.8055625,42.2247891 C19.5925313,43.6848281 19.303125,44.3221406 19.303125,44.3221406 C19.5885234,45.0441094 20.2716797,45.7278984 20.2716797,45.7278984 C20.2716797,45.7278984 20.9566641,46.4124609 21.6786328,46.6961719 C21.6786328,46.6961719 22.31475,46.4083125 23.7748594,45.1945078 C25.5609375,43.7109141 26.6678672,43.8312187 27.9737812,44.0492578 C28.2307031,44.1531094 28.4840391,44.2548516 28.7404687,44.3515313 C29.8196953,45.135375 30.685875,45.8336484 30.8996953,48.1458047 C31.0744219,50.035875 31.320375,50.6911172 31.320375,50.6911172 C32.0329922,51 32.9995781,51 32.9995781,51 C32.9995781,51 33.9678516,51 34.6792734,50.6902734 C34.6792734,50.6902734 34.9256484,50.0365078 35.0994609,48.1457344 C35.3132813,45.8335781 36.1807969,45.1360078 37.2587578,44.3669297 C37.51575,44.2547813 37.7685937,44.1531094 38.016375,44.0401875 C39.3317109,43.8296719 40.4381484,43.7108437 42.2243672,45.1944375 C43.6845469,46.4075391 44.3219297,46.6969453 44.3219297,46.6969453 C45.0438281,46.4114766 45.7274766,45.7278984 45.7274766,45.7278984 C45.7274766,45.7278984 46.4118281,45.0433359 46.6964531,44.3213672 C46.6964531,44.3213672 46.4078906,43.6847578 45.1942266,42.2247891 C43.7103516,40.4387109 43.8299531,39.3323437 44.0486953,38.0257969 C44.1526172,37.7690156 44.2552031,37.5161719 44.3510391,37.2591797 C45.1348828,36.1805156 45.8330859,35.3137031 48.1452422,35.0998828 C50.0353125,34.9251563 50.690625,34.6795547 50.690625,34.6795547 C50.9996484,33.9675 50.9996484,33 50.9996484,33 C50.9996484,33 50.9995781,32.0317266 50.6898516,31.3203047 Z M32.9995781,41.4183047 C28.3501641,41.4183047 24.5812031,37.6494141 24.5812031,33 C24.5812031,28.3505859 28.3501641,24.5816953 32.9995781,24.5816953 C37.6489219,24.5816953 41.4178828,28.3505859 41.4178828,33 C41.4178828,37.6494141 37.6489219,41.4183047 32.9995781,41.4183047 Z"/>
  </g>
</svg>
