<svg xmlns="http://www.w3.org/2000/svg" width="66" height="66" viewBox="0 0 66 66" xmlns:xlink="http://www.w3.org/1999/xlink">
  <defs>
    <circle id="a" cx="41.5" cy="23.5" r="3.5"/>
    <mask id="b" width="7" height="7" x="0" y="0" fill="white">
      <use xlink:href="#a"/>
    </mask>
  </defs>
  <g fill="none" fill-rule="evenodd">
    <circle cx="33" cy="33" r="33" fill="#5F4997"/>
    <g transform="translate(11 16)">
      <path stroke="#FFFFFF" stroke-width="3" d="M10.0609581,4.80897468 C5.9438038,6.71146313 1.70858506,8.55997493 1.70858506,8.55997493 C1.70858506,8.55997493 -2.13573133,10.4999999 1.70858506,12.1667063 C5.55290145,13.8334127 18.103984,20.2457834 18.103984,20.2457834 C18.103984,20.2457834 21.352129,22.1212835 25.9923363,19.9572449 C30.6325435,17.7932063 43.0064295,11.8781675 43.0064295,11.8781675 C43.0064295,11.8781675 47.4919631,10.2912058 43.0064295,8.70424417 C38.5208958,7.11728253 25.373642,0.769435949 25.373642,0.769435949 C25.373642,0.769435949 21.9708233,-0.961794936 18.5680047,0.769435949 C15.9090676,2.12220683 14.1781124,2.90648624 10.0609581,4.80897468 Z"/>
      <path stroke="#FFFFFF" stroke-width="3" d="M34,21 L34,26.1428571 C34,26.1428571 33.8481013,28.2484472 32.9367089,29.0869565 C32.0253165,29.9254658 28.6722925,33 22.4444444,33 C16.2165963,33 11.3670886,29.7857143 10.7594937,28.8074534 C10.1518987,27.8291925 10,27.3819876 10,25.2857143 L10,21"/>
      <rect width="3" height="5" x="40" y="16" fill="#FFFFFF"/>
      <use stroke="#FFFFFF" stroke-width="4" mask="url(#b)" xlink:href="#a"/>
    </g>
  </g>
</svg>
