<svg xmlns="http://www.w3.org/2000/svg" width="21" height="25" viewBox="0 0 21 25">
  <path fill="#FFFFFF" fill-rule="evenodd" d="M19.82,0 L1.259,0 C0.681,0 0,0.572 0,1.167 L0,14.79 C0,20.774 4.702,25 10.5,25 C16.298,25 21,20.774 21,14.79 L21,1.228 C21,0.633 20.399,0 19.82,0 Z M3.15570043,9.27716624 C2.47465391,6.60842527 4.09122683,3.87275664 6.76639427,3.16687884 C9.44156171,2.46204678 12.1636619,4.05471625 12.8447084,6.72241147 C13.524712,9.39115243 11.9081391,12.1278668 9.23401461,12.8326989 C6.55884716,13.5385767 3.83778991,11.9459072 3.15570043,9.27716624 Z"/>
</svg>
