<svg xmlns="http://www.w3.org/2000/svg" width="85" height="75" viewBox="0 0 85 75">
  <g fill="#3C73B1">
    <path d="M47.3409787.695204819C48.703741.695204819 50.1249787 2.16522892 50.1249787 3.54853012L50.1249787 35.0332048C50.1249787 48.9237952 39.0303393 58.7313012 25.3435279 58.7313012 11.660282 58.7313012.564216393 48.9237952.564216393 35.0332048L.564216393 3.40636145C.564216393 2.0223494 2.17300328.695204819 3.5371918.695204819L47.3409787.695204819zM22.1608967 29.2483614C28.2123885 27.684506 31.8685279 21.6124819 30.3282 15.6876024 28.7864459 9.76272289 22.6287 6.22912048 16.5764951 7.79439759 10.5221508 9.3596747 6.86458525 15.4316988 8.40633934 21.3565783 9.94951967 27.280747 16.1065525 30.8157711 22.1608967 29.2483614zM12.7036 63C13.8596 63 14.6386 63.215 15.1526 63.439L15.1526 64.281C14.2866 63.93 13.6456 63.791 12.7036 63.791 10.6456 63.791 9.9046 65.563 9.9046 67.832 9.9046 70.107 10.6456 71.875 12.7036 71.875 13.6456 71.875 14.2866 71.736 15.1526 71.385L15.1526 72.227C14.6386 72.455 13.8596 72.668 12.7036 72.668 9.8926 72.668 8.9996 70.508 8.9996 67.832 8.9996 65.16 9.8926 63 12.7036 63"/>
    <polygon points="17.033 66.266 18.791 71.412 20.548 66.266 21.553 66.266 17.937 75.68 16.996 75.68 18.414 72.379 16.03 66.266"/>
    <path d="M29.9004 67.9824C29.9004 67.1684 29.4214 66.9184 28.7074 66.9184 27.9294 66.9184 27.5024 67.0664 27.0014 67.3324 27.0494 67.5334 27.0754 67.7464 27.0754 67.9824L27.0754 72.5414 26.1974 72.5414 26.1974 67.9824C26.1974 67.1684 25.7194 66.9184 25.0044 66.9184 24.2764 66.9184 23.8624 67.0434 23.3724 67.2934L23.3724 72.5414 22.4934 72.5414 22.4934 66.2654 22.9834 66.2654 23.1714 66.7794C23.7734 66.3394 24.4274 66.1384 25.0044 66.1384 25.8454 66.1384 26.4354 66.3784 26.7614 66.8534 27.4144 66.4024 28.0804 66.1384 28.7074 66.1384 30.0494 66.1384 30.7784 66.7674 30.7784 68.0214L30.7784 72.5414 29.9004 72.5414 29.9004 67.9824zM35.6719 67.0176C35.4859 66.9556 35.2349 66.9176 34.9199 66.9176 34.0669 66.9176 33.5649 67.0546 33.0989 67.3186L33.0989 72.5406 32.2229 72.5406 32.2229 66.2656 32.7109 66.2656 32.8989 66.7906C33.4879 66.3516 34.2169 66.1386 34.9199 66.1386 35.2089 66.1386 35.4349 66.1636 35.6719 66.2016L35.6719 67.0176zM37.4668 70.8203C37.4668 71.6383 37.9458 71.8883 38.7228 71.8883 39.5388 71.8883 39.9518 71.7503 40.4178 71.4863L40.4178 66.2653 41.2988 66.2653 41.2988 72.5413 40.8068 72.5413 40.6178 72.0153C40.0278 72.4553 39.3888 72.6683 38.7228 72.6683 37.2288 72.6683 36.5898 71.9883 36.5898 70.7833L36.5898 66.2653 37.4668 66.2653 37.4668 70.8203zM72.0020593 34.5L76.3768448 35.6390652 76.3768448 33.359925 72.0020593 34.5zM77.5918087 33.0771783L77.5918087 35.9228217 80 36.5519331 80 38 70 35.1765724 70 33.8234276 80 31 80 32.4470571 77.5918087 33.0771783zM76.5154348 19.9231396C75.1752174 19.9231396 74.41 20.1005925 74.41 21.3008189 74.41 22.4999698 75.1752174 22.6763472 76.5154348 22.6763472 77.8534783 22.6763472 78.6186957 22.4999698 78.6186957 21.3008189 78.6186957 20.1005925 77.8534783 19.9231396 76.5154348 19.9231396M76.5154348 24.1056491C74.586087 24.1056491 73.2328261 23.5474792 73.2328261 21.3008189 73.2328261 19.0509321 74.586087 18.4938377 76.5154348 18.4938377 78.4436957 18.4938377 79.7958696 19.0509321 79.7958696 21.3008189 79.7958696 23.5474792 78.4436957 24.1056491 76.5154348 24.1056491M74.5103261 13.7812283C74.461413 13.9339453 74.438587 14.1856057 74.438587 14.4770585 74.438587 15.2212849 74.611413 15.7773038 74.8103261 16.0945679L79.6429348 16.0945679 79.6429348 17.5088132 73.3831522 17.5088132 73.3831522 16.6753226 73.8853261 16.4483981C73.5081522 15.9794925 73.2331522 15.2729075 73.2331522 14.4523226 73.2331522 14.1856057 73.2711957 13.9597566 73.311413 13.7812283L74.5103261 13.7812283zM76.0494565 11.7762264L76.0494565 9.24886792C75.2027174 9.24886792 74.4483696 9.29941509 74.4483696 10.3985472 74.4483696 11.4353019 75.111413 11.7256792 76.0494565 11.7762264M73.2331522 10.3985472C73.2331522 8.1744717 74.6875 7.82171698 76.4157609 7.82171698 76.6244565 7.82171698 76.8266304 7.83462264 77.0277174 7.84645283L77.0277174 11.7762264C77.9657609 11.7514906 78.5820652 11.4094906 78.5820652 10.1210755 78.5820652 9.32522642 78.4440217 8.66811321 78.2027174 8.11209434L79.4059783 8.11209434C79.7081522 8.83158491 79.7951087 9.65432075 79.7951087 10.3361698 79.7951087 12.4473208 78.5418478 13.2044528 76.5157609 13.2044528 74.5016304 13.2044528 73.2331522 12.4580755 73.2331522 10.3985472M76.5154348 5.47417736C77.6795652 5.47417736 78.6056522 5.28489434 78.6056522 4.04595094 78.6056522 3.37700755 78.3806522 2.93498868 78.2436957 2.68225283L74.7871739 2.68225283C74.6469565 2.93498868 74.4230435 3.37700755 74.4230435 4.04595094 74.4230435 5.28489434 75.3632609 5.47417736 76.5154348 5.47417736M73.7230435 2.68225283L70.2534783 2.68225283 70.2534783 1.26693208 79.6426087 1.26693208 79.6426087 2.10149811 79.1447826 2.32842264C79.5426087 2.88336604 79.7958696 3.52864906 79.7958696 4.37504528 79.7958696 6.21947925 78.5676087 6.90347925 76.5154348 6.90347925 74.4741304 6.90347925 73.2328261 6.21947925 73.2328261 4.37504528 73.2328261 3.74266792 73.433913 3.13825283 73.7230435 2.68225283M74.5059783 27.7849453C74.5059783 28.0301528 74.5505435 28.2581528 74.636413 28.4657189 74.7048913 28.671134 74.8190217 28.8184736 74.9875 28.9249453L75.0831522 28.9819453C75.436413 29.1561717 75.9809783 29.1809075 76.5157609 29.1809075 77.0548913 29.1809075 77.6059783 29.1561717 77.961413 28.9733415 78.0146739 28.9443038 78.0461957 28.9249453 78.0711957 28.9055868L78.1222826 28.8647189C78.211413 28.7937377 78.2788043 28.7087755 78.3353261 28.5980019 78.4679348 28.3678509 78.5375 28.0774736 78.5375 27.7795679 78.5375 27.4934925 78.4711957 27.2149453 78.3548913 26.9955491 78.3016304 26.8869264 78.2429348 26.7987377 78.1668478 26.7342094 78.0777174 26.6449453 77.986413 26.5890208 77.8907609 26.559983 77.5244565 26.4083415 77.0201087 26.3868321 76.5211957 26.3868321 75.9961957 26.3868321 75.4581522 26.4104925 75.1048913 26.5836434 75.0494565 26.6083792 75.0070652 26.6341906 74.9701087 26.6632283 74.8277174 26.7707755 74.7472826 26.8675679 74.6918478 26.9923226 74.5690217 27.2257 74.5059783 27.4999453 74.5059783 27.7849453M82.7092391 28.0086434C82.7092391 28.7948132 82.5538043 29.6057189 82.3070652 30.1230208L81.0190217 30.1746434 80.938587 30.1757189 80.963587 30.1004358C81.2451087 29.3669642 81.3809783 28.6818887 81.3809783 28.0086434 81.3809783 26.8073415 80.8538043 26.3932849 80.0570652 26.3932849L79.4820652 26.3932849C79.6233696 26.7438887 79.7842391 27.2611906 79.7842391 27.7645113 79.7842391 30.1875491 78.1309783 30.5973038 76.5157609 30.5973038 74.8972826 30.5973038 73.2440217 30.2714358 73.2440217 27.8473226 73.2440217 27.1353604 73.3853261 26.578266 73.6798913 26.1502283L73.4788043 26.0190208 73.4440217 25.1188509 73.4418478 25.0629264 73.5016304 25.0629264 79.8929348 25.0736811C81.3581522 25.0736811 82.7092391 25.4307377 82.7092391 28.0086434M66.2540217 44.6048925L66.2540217 42.7830434C66.2540217 41.5096849 65.5246739 41.1945717 64.7496739 41.1945717 63.7855435 41.1945717 63.2594565 41.619383 63.2594565 42.7712132L63.2594565 44.6048925 66.2540217 44.6048925zM59.4388043 42.8701566L59.4388043 44.6048925 62.0692391 44.6048925 62.0692391 42.8206849C62.0692391 41.7280057 61.3822826 41.4720434 60.7822826 41.4720434 60.1561957 41.4720434 59.4388043 41.678534 59.4388043 42.8701566L59.4388043 42.8701566zM58.1518478 45.9632132L58.1518478 42.9056472C58.1518478 40.6837226 59.2659783 40.0158547 60.7181522 40.0158547 61.5192391 40.0158547 62.246413 40.4170057 62.5822826 41.108534 62.8442391 40.2352509 63.7083696 39.7373075 64.7877174 39.7373075 66.3377174 39.7373075 67.5420652 40.4772321 67.5420652 42.8325151L67.5420652 45.9632132 58.1518478 45.9632132zM62.4083696 35.3027075C62.3572826 35.4478962 62.3344565 35.6898774 62.3344565 35.9705755 62.3344565 36.6868396 62.5083696 37.2202736 62.7083696 37.5246321L67.5420652 37.5246321 67.5420652 38.8840283 61.2822826 38.8840283 61.2822826 38.0817264 61.7822826 37.8644811C61.4040217 37.414934 61.1290217 36.7363113 61.1290217 35.9447642 61.1290217 35.6898774 61.1670652 35.4737075 61.2083696 35.3027075L62.4083696 35.3027075zM66.001413 34.4897585L61.2818478 34.4897585 61.2818478 33.1282113 65.9883696 33.1282113C66.3383696 33.1282113 66.4633696 33.0099094 66.4633696 32.6195132L67.6046739 32.6195132C67.6046739 32.6195132 67.6275 32.7410415 67.6275 32.8851547 67.6275 33.9918151 67.0775 34.4897585 66.001413 34.4897585M58.5144565 33.8100604C58.5144565 33.3239472 58.926413 32.9227962 59.428587 32.9227962 59.928587 32.9227962 60.3416304 33.3239472 60.3416304 33.8100604 60.3416304 34.2950981 59.928587 34.6962491 59.428587 34.6962491 58.926413 34.6962491 58.5144565 34.2950981 58.5144565 33.8100604M59.3406522 27.6352396C59.2667391 27.8546358 59.2156522 28.1084472 59.2156522 28.5332585 59.2156522 29.1398245 59.4536957 29.6259377 60.1678261 29.6259377L61.2819565 29.6259377 61.2819565 27.9137868 62.4721739 27.9137868 62.4721739 29.6259377 67.5417391 29.6259377 67.5417391 30.985334 62.4721739 30.985334 62.4721739 32.0898434 61.6058696 32.0898434 61.2819565 30.985334 60.0417391 30.985334C58.7026087 30.985334 58.0004348 30.2572396 58.0004348 28.6300509 58.0004348 28.2289 58.0623913 27.8653906 58.1515217 27.6352396L59.3406522 27.6352396z"/>
    <polygon points="61.282 25.973 65.749 24.601 61.282 23.23 61.282 21.723 70.671 25.195 70.671 26.715 67.328 25.207 61.282 27.479"/>
    <path d="M63.7851087 18.9522038C63.9470652 17.1314302 64.5111957 16.6582226 65.6753261 16.6582226 66.7525 16.6582226 67.6916304 17.3024302 67.6916304 19.2436566 67.6916304 20.0814491 67.526413 20.8353547 67.3525 21.2461849L66.1503261 21.2461849C66.3003261 20.8471849 66.501413 20.2029774 66.501413 19.438317 66.501413 18.467166 66.2775 17.9939585 65.7242391 17.9939585 65.2644565 17.9939585 65.0242391 18.1875434 64.9492391 19.0016755 64.7883696 20.8353547 64.1981522 21.2827509 63.1198913 21.2827509 62.0459783 21.2827509 61.1296739 20.6041283 61.1296739 18.8188453 61.1296739 17.9939585 61.2307609 17.4099774 61.4448913 16.9367698L62.6579348 16.9367698C62.4568478 17.4594491 62.3068478 18.0305245 62.3068478 18.7941094 62.3068478 19.5103736 62.5209783 19.9609962 63.0829348 19.9609962 63.5198913 19.9609962 63.7090217 19.7416 63.7851087 18.9522038M64.4686957 5.48568491C63.1002174 5.48568491 62.3208696 5.65560943 62.3208696 6.80851509 62.3208696 7.96249623 63.1002174 8.13134528 64.4686957 8.13134528 65.835 8.13134528 66.6121739 7.96249623 66.6121739 6.80851509 66.6121739 5.65560943 65.835 5.48568491 64.4686957 5.48568491M64.4686957 9.5025717C62.5013043 9.5025717 61.1208696 8.97021321 61.1208696 6.80851509 61.1208696 4.64789245 62.5013043 4.11338302 64.4686957 4.11338302 66.433913 4.11338302 67.8121739 4.64789245 67.8121739 6.80851509 67.8121739 8.97021321 66.433913 9.5025717 64.4686957 9.5025717M66.001413 3.12470189L58.151413 3.12470189 58.151413 1.76423019 65.9883696 1.76423019C66.3383696 1.76423019 66.4633696 1.64485283 66.4633696 1.2544566L67.6046739 1.2544566C67.6046739 1.2544566 67.6275 1.37706038 67.6275 1.52224906 67.6275 2.62675849 67.0775 3.12470189 66.001413 3.12470189M62.4402174 13.0753962C62.4402174 13.3163019 62.4847826 13.5389245 62.5695652 13.7421887 62.6347826 13.9433019 62.7467391 14.089566 62.9152174 14.1917358L63.0076087 14.2487358C63.3532609 14.4186604 63.8836957 14.4433962 64.4097826 14.4433962 64.9369565 14.4433962 65.4771739 14.4186604 65.8282609 14.2401321 65.8793478 14.2121698 65.9086957 14.1917358 65.9336957 14.1734528L65.9847826 14.1336604C66.0717391 14.0637547 66.1369565 13.9798679 66.1967391 13.8723208 66.3217391 13.6475472 66.3913043 13.3614717 66.3913043 13.0689434 66.3913043 12.7914717 66.326087 12.5161509 66.2141304 12.3010566 66.1608696 12.1935094 66.098913 12.1106981 66.025 12.0440189 65.9402174 11.9579811 65.8521739 11.9031321 65.7586957 11.8740943 65.398913 11.7246038 64.9032609 11.7052453 64.4152174 11.7052453 63.898913 11.7052453 63.373913 11.7278302 63.025 11.8977547 62.973913 11.9203396 62.9315217 11.9472264 62.8934783 11.9751887 62.7554348 12.0816604 62.6771739 12.1741509 62.6228261 12.2978302 62.5043478 12.5279811 62.4402174 12.7957736 62.4402174 13.0753962M70.4793478 13.2947925C70.4793478 14.0648302 70.326087 14.8596038 70.0836957 15.3661509L68.823913 15.4177736 68.7445652 15.4177736 68.7717391 15.3446415C69.0467391 14.6251509 69.1804348 13.9540566 69.1804348 13.2947925 69.1804348 12.1160755 68.6597826 11.8762453 67.8804348 11.8762453L67.4032609 11.8762453C67.5413043 12.2193208 67.6130435 12.6441321 67.6130435 13.1366981 67.6130435 15.5113396 65.9913043 15.8307547 64.4097826 15.8307547 62.823913 15.8307547 61.2032609 15.5113396 61.2032609 13.1366981 61.2032609 12.4376415 61.3413043 11.8923774 61.6271739 11.4740189L61.4336957 11.3438868 61.4021739 10.4630755 61.398913 10.4071509 61.4554348 10.4071509 67.7184783 10.4179057C69.151087 10.4179057 70.4793478 10.7685094 70.4793478 13.2947925"/>
    <polygon points="63.772 53.428 67.542 53.428 67.542 54.841 63.772 54.841 58.152 58 58.152 56.428 62.535 54.134 58.152 51.935 58.152 50.363"/>
  </g>
</svg>
