<svg xmlns="http://www.w3.org/2000/svg" width="32" height="32" viewBox="0 0 32 32">
  <path fill="#FFFFFF" fill-rule="evenodd" d="M23.6570567,22.6580624 C23.4277573,22.886356 23.1572243,23 22.8454576,23 C22.5186054,23 22.2500838,22.886356 22.0318471,22.6580624 L19,20 C17.9259135,20.7462286 16.6674489,21 15.3449547,21 C14.4860878,21 13.6644318,20.8340597 12.8809923,20.502179 C12.0975528,20.1652699 11.4197117,19.7157224 10.8524975,19.1475025 C10.2852833,18.5802883 9.83473014,17.9034529 9.49983238,17.1190077 C9.16694603,16.3355682 9,15.2058331 9,14.3459604 C9,13.4870935 9.16694603,12.6644318 9.49983238,11.8809923 C9.83473014,11.0965471 10.2842776,10.4207174 10.8524975,9.85350318 C11.418706,9.28528327 12.0965471,8.83473014 12.8809923,8.49983238 C13.6644318,8.16694603 14.4870935,8 15.3449547,8 C16.2048274,8 17.3345625,8.16694603 18.118002,8.49983238 C18.9014415,8.83473014 19.5782769,9.28528327 20.1475025,9.85350318 C20.7127053,10.4207174 21.1672813,11.0965471 21.4991619,11.8809923 C21.833054,12.6644318 22,13.4870935 22,14.3459604 C22,15.6684546 21.7452229,16.9259135 21,18 L23.6661079,21.0328528 C23.8873617,21.2551123 23.9979886,21.5276567 23.9979886,21.8444519 C23.9979886,22.15823 23.8853503,22.428763 23.6570567,22.6580624 Z M19.9995019,14.4991906 C19.9995019,13.2609327 19.5602285,12.20197 18.6783199,11.3223026 C17.799773,10.440394 16.7396898,10 15.4991906,10 C14.2609327,10 13.2008494,10.440394 12.3223026,11.3223026 C11.4415146,12.20197 11,13.2609327 11,14.4991906 C11,15.7374486 11.4415146,16.7975319 12.3223026,17.6760787 C13.2008494,18.5568667 14.2598121,18.9983813 15.4991906,18.9983813 C16.7396898,18.9983813 17.799773,18.5568667 18.6783199,17.6760787 C19.5602285,16.7975319 19.9995019,15.7374486 19.9995019,14.4991906 Z"/>
</svg>
