<?xml version="1.0" encoding="utf-8"?>
<!-- Generator: Adobe Illustrator 16.0.0, SVG Export Plug-In . SVG Version: 6.00 Build 0)  -->
<!DOCTYPE svg PUBLIC "-//W3C//DTD SVG 1.1//EN" "http://www.w3.org/Graphics/SVG/1.1/DTD/svg11.dtd">
<svg version="1.1" id="Layer_1" xmlns="http://www.w3.org/2000/svg" xmlns:xlink="http://www.w3.org/1999/xlink" x="0px" y="0px"
	 width="32px" height="32px" viewBox="0 0 32 32" enable-background="new 0 0 32 32" xml:space="preserve">
<g>
	<path fill="#FFFFFF" d="M23.456,22.119c0,0.312-0.112,0.581-0.339,0.809c-0.228,0.227-0.497,0.34-0.807,0.34
		c-0.325,0-0.592-0.113-0.809-0.34l-3.074-3.067c-1.068,0.742-2.26,1.112-3.575,1.112c-0.854,0-1.671-0.165-2.45-0.495
		c-0.779-0.335-1.453-0.782-2.017-1.347c-0.564-0.564-1.012-1.237-1.345-2.017c-0.331-0.779-0.497-1.596-0.497-2.451
		c0-0.854,0.166-1.672,0.497-2.451c0.333-0.78,0.78-1.452,1.345-2.016c0.563-0.565,1.237-1.013,2.017-1.346
		c0.779-0.331,1.597-0.497,2.45-0.497c0.855,0,1.672,0.166,2.451,0.497c0.779,0.333,1.452,0.781,2.018,1.346
		c0.562,0.564,1.014,1.236,1.344,2.016c0.332,0.779,0.498,1.597,0.498,2.451c0,1.315-0.37,2.506-1.111,3.574l3.074,3.075
		C23.346,21.533,23.456,21.804,23.456,22.119z M17.689,17.499c0.787-0.784,1.179-1.73,1.179-2.835c0-1.105-0.392-2.05-1.179-2.835
		c-0.784-0.787-1.73-1.18-2.837-1.18c-1.105,0-2.051,0.393-2.835,1.18c-0.786,0.785-1.18,1.73-1.18,2.835
		c0,1.105,0.394,2.051,1.18,2.835c0.784,0.786,1.729,1.18,2.835,1.18C15.959,18.679,16.905,18.285,17.689,17.499z"/>
</g>
</svg>
