<svg xmlns="http://www.w3.org/2000/svg" width="14" height="16" viewBox="0 0 14 16">
	<g fill="none">
		<path fill="#777777" d="M2,2 C2,1.25402851 2.35714286,0 4,0 L11,0 L14,4 L14,14.3157895 C14,15.1578947 13.1785714,16 12.3571429,16 L4.14285714,16 C3.32142857,16 2,14.8421053 2,14 L2,2 Z" />
		<path fill="#FFFFFF" d="M13,5 L10,1 L3.97909271,1 C3.61465646,1 3,1.61610372 3,2 L3,14 C3,14.3830225 3.61630863,15 3.97909271,15 L12,15 C12.3631333,15 13,14.3781086 13,14 L13,5 Z" />
		<path fill="#777777" d="M13,6 L10,6 C9.3377883,6 9,5.66247343 9,5 L9,1 L10,1 L10,5 L13,5 L13,6 Z" />
		<rect width="7" height="4" y="2" fill="#E3294A" rx="1" />
		<path fill="#E3294A" d="M9.42945212,11.2517117 C9.64396561,11.4654423 9.81848404,11.6144737 9.99602923,11.7400256 C10.1621455,11.8574145 10.3061499,11.9357982 10.4150484,11.9686978 C10.5077537,11.9958311 10.5849208,11.9944974 10.660561,11.9706124 C10.7281986,11.9484392 10.7670471,11.9194287 10.7828899,11.8856427 C10.8035662,11.8420794 10.8021311,11.7682333 10.7712329,11.700143 C10.7369188,11.6228 10.6591752,11.541094 10.5563031,11.4768535 C10.4593017,11.4155434 10.3407039,11.370846 10.1691982,11.3291125 C10.0017534,11.288015 9.81134987,11.2572072 9.62217344,11.2412622 C9.55155048,11.2357076 9.48023555,11.232168 9.40833127,11.2306418 C9.41539245,11.2377116 9.42243335,11.2447356 9.42945212,11.2517117 Z M5.58759464,12.4491429 C5.47726704,12.5572063 5.43007639,12.6377583 5.41146315,12.7202181 C5.40852762,12.7330475 5.40647406,12.7449561 5.40510688,12.7557335 C5.49840554,12.7320231 5.60627697,12.6734678 5.74988169,12.5516722 C5.90098733,12.4230176 6.07400554,12.2364119 6.26130966,11.9959024 C5.97337438,12.1395687 5.74053701,12.3001594 5.58759464,12.4491429 Z M7.97790855,7.98450453 C7.9822511,7.94376581 7.99984038,7.78798784 8.00312132,7.7552386 C8.00703937,7.71612996 8.00913026,7.68759401 8.00967556,7.66674417 C8.00993144,7.65659361 8.00983864,7.64858065 8.00943778,7.64194569 C8.00948831,7.64278202 8.02649073,7.66748396 8.029052,7.67130198 C8.0292698,7.67162665 8.20128108,7.30699481 8.20128108,7.30699481 C8.44168209,7.42028113 8.44238064,7.4318436 8.37893471,8.02704764 C8.33616059,8.43219686 8.22395678,8.96196404 8.06172599,9.47395981 C8.0193511,9.60769376 7.97356307,9.74021524 7.92470766,9.86898676 C7.91073622,9.90571124 7.8963542,9.9425674 7.88157834,9.97953228 C7.7237995,10.374249 7.52111529,10.7813629 7.29393636,11.172924 C7.1886498,11.3543939 7.07810208,11.5325232 6.96432494,11.7045298 C6.94453024,11.7344551 6.92463778,11.7641951 6.90465828,11.7937351 C6.57910748,12.275748 6.2735206,12.6354827 6.01102303,12.8589782 C5.79391622,13.0431138 5.6104087,13.1322008 5.43413715,13.1613281 C5.26013932,13.1903278 5.12583978,13.1486914 5.05029511,13.0064412 C4.99588121,12.9045598 4.98632085,12.7702307 5.01821461,12.6308471 C5.05448849,12.4701401 5.14154197,12.3215442 5.305802,12.1606563 C5.49851304,11.9729322 5.78143556,11.7801683 6.12490054,11.6135809 C6.29393655,11.5314581 6.49096842,11.4491141 6.70013178,11.3713861 C6.8919427,11.3001065 7.09395573,11.232709 7.29393636,11.172924 C7.3100299,11.1681128 7.32611027,11.1633509 7.34217111,11.1586402 C7.67348864,11.061974 7.94772704,10.9999462 8.2833696,10.9389548 C8.37967513,10.9213856 8.46817423,10.9062065 8.55123031,10.8931588 C8.71343241,10.8676776 8.8548753,10.8503255 8.99316209,10.8391752 C9.00755266,10.8380921 9.02192729,10.8370783 9.03628593,10.8361341 C9.2459322,10.8223472 9.45217145,10.8233695 9.65491578,10.8393186 C9.86594557,10.8571021 10.0771608,10.8912773 10.2649359,10.9373651 C10.4749795,10.9884757 10.6321274,11.0477019 10.7708329,11.1353749 C10.9366485,11.2389158 11.069938,11.3789989 11.139155,11.53503 C11.2168245,11.7061457 11.2206659,11.9038014 11.1476202,12.0576975 C11.0789859,12.2040883 10.9506896,12.2998947 10.7841186,12.3544883 C10.6310028,12.4028628 10.47216,12.405608 10.3001068,12.3552432 C10.141038,12.307198 9.96174237,12.2096046 9.76324049,12.0693299 C9.56632415,11.9300796 9.37471362,11.7664523 9.14498803,11.537565 C9.05654525,11.4496588 8.96489621,11.354663 8.87327556,11.2559832 C8.76406049,11.1383533 8.65488577,11.0154889 8.55123031,10.8931588 C8.48229409,10.8118029 8.41579901,10.7306834 8.35335667,10.6514972 C8.17208222,10.421614 8.01161371,10.1926717 7.88157834,9.97953228 C7.83309908,9.90007051 7.78884978,9.82280521 7.74932929,9.74850651 C7.70392728,9.66278981 7.66437717,9.58092304 7.62897038,9.49941791 C7.56367553,9.34911156 7.51247137,9.20003508 7.4646423,9.0303114 C7.39797661,8.79309805 7.35344044,8.57589859 7.33504066,8.38372304 C7.31695849,8.19486484 7.32165259,8.01179501 7.3445822,7.84376512 C7.36734272,7.67540953 7.40395142,7.55081613 7.46951543,7.45270928 C7.53467157,7.35786173 7.62433348,7.2957338 7.72149211,7.26006797 C7.76893901,7.24265075 7.79885377,7.23671927 7.84980534,7.230482 C7.85666593,7.22962513 7.85666593,7.22962513 7.89122043,7.22668928 L7.85944612,7.22920853 C7.93158261,7.21618981 7.97969582,7.21535045 8.04585195,7.23542548 C8.0944672,7.25022143 8.133094,7.26973334 8.19975663,7.31022979 C8.21182329,7.31756009 8.22480855,7.32557795 8.23893792,7.33437985 L8.02570642,7.67667251 C8.02010344,7.67318213 8.01476203,7.66987441 8.00967556,7.66674417 C7.97340231,7.64442136 7.9500947,7.63112393 7.93735123,7.62496645 C7.93230297,7.62581826 7.92678818,7.62637501 7.89122043,7.62996578 L7.92299474,7.62744654 C7.90905923,7.62951102 7.90905923,7.62951102 7.89880692,7.63077037 C7.87610494,7.63354945 7.87226356,7.63431112 7.86046272,7.63864307 C7.83607798,7.64759443 7.81474973,7.66237307 7.80337929,7.67889519 C7.78063806,7.71293461 7.75947938,7.78494566 7.74418931,7.89804247 C7.72533404,8.03621627 7.72143788,8.18816654 7.73648135,8.34528722 C7.7498396,8.48480676 7.78028106,8.644954 7.82581312,8.82098568 C7.8343017,8.85380344 7.84331478,8.88717328 7.85283945,8.92106448 C7.91035274,9.12515289 7.97182192,9.29226614 8.06172599,9.47395981 C8.07562013,9.50203949 8.0901934,9.5304674 8.10553616,9.55943384 C8.23884899,9.81006196 8.43529363,10.1041166 8.67002361,10.4017894 C8.78155402,10.5432267 8.90713821,10.6917022 9.03628593,10.8361341 C9.1601071,10.9746091 9.28720391,11.1093671 9.40833127,11.2306418 C9.28202226,11.227961 9.1538947,11.2314933 9.02450488,11.2412305 C8.97514698,11.2452109 8.925059,11.2500908 8.87327556,11.2559832 C8.72289805,11.2730945 8.55822267,11.2987451 8.35560813,11.3357085 C8.03263347,11.3943981 7.77160317,11.4534384 7.45539734,11.5456953 C7.29128241,11.5938307 7.12492923,11.6476145 6.96432494,11.7045298 C6.72069712,11.7908671 6.49029821,11.8844101 6.30100873,11.9763726 C6.28766288,11.9828456 6.27442908,11.9893565 6.26130966,11.9959024 C6.36074054,11.8682274 6.46419724,11.725362 6.57053887,11.5679119 C6.61420778,11.5033467 6.65744719,11.4377794 6.70013178,11.3713861 C7.0382225,10.8455067 7.34150636,10.2678066 7.54772112,9.72576297 C7.5758927,9.65150918 7.60300222,9.57586998 7.62897038,9.49941791 C7.70504402,9.27545184 7.77132265,9.04450972 7.82581312,8.82098568 C7.9001127,8.51620316 7.95249546,8.22521252 7.97790855,7.98450453 Z" />
	</g>
</svg>
