<svg xmlns="http://www.w3.org/2000/svg" width="40" height="48" viewBox="0 0 40 48">
	<g fill="none">
		<path fill="#000000" d="M6,4.00989318 C6,1.79529033 7.78353465,0 10.0015865,0 L28.972973,0 L40,12 L40,44.0098214 C40,46.2135362 38.2079681,48 35.9997876,48 L10.0002124,48 C7.79095608,48 6,46.2059475 6,43.9901068 L6,4.00989318 Z" />
		<path fill="#FFFFFF" d="M38,12.7793752 L28.0946282,2 L10.0015865,2 C8.8924327,2 8,2.89552758 8,4.00989318 L8,43.9901068 C8,45.101936 8.89608691,46 10.0002124,46 L35.9997876,46 C37.1049759,46 38,45.1073867 38,44.0098214 L38,12.7793752 Z" />
		<path fill="#000000" d="M40,14 L30.997152,14 C29.3416228,14 28,12.6573979 28,11.0012144 L28,1 L30,3.16666667 L30,11.0012144 C30,11.5531836 30.4465475,12 30.997152,12 L38.1538462,12 L40,14 Z M40,14 L30.997152,14 C29.3416228,14 28,12.6573979 28,11.0012144 L28,1 L30,3.16666667 L30,11.0012144 C30,11.5531836 30.4465475,12 30.997152,12 L38.1538462,12 L40,14 Z" />
		<rect width="25" height="13" y="7" fill="#E3294A" rx="1" />
		<path fill="#FFFFFF" d="M3.72753906,17 L3.72753906,9.84179688 L6.046875,9.84179688 C6.92578564,9.84179688 7.49869658,9.87760381 7.765625,9.94921875 C8.1757833,10.0566412 8.51920435,10.2902 8.79589844,10.6499023 C9.07259253,11.0096047 9.2109375,11.474281 9.2109375,12.0439453 C9.2109375,12.4834006 9.13118569,12.8528631 8.97167969,13.1523438 C8.81217368,13.4518244 8.60953899,13.6870109 8.36376953,13.8579102 C8.11800007,14.0288094 7.86816533,14.1419268 7.61425781,14.1972656 C7.269204,14.2656253 6.76953452,14.2998047 6.11523438,14.2998047 L5.17285156,14.2998047 L5.17285156,17 L3.72753906,17 Z M5.17285156,11.0527344 L5.17285156,13.0839844 L5.96386719,13.0839844 C6.53353149,13.0839844 6.91438706,13.0465499 7.10644531,12.9716797 C7.29850356,12.8968095 7.44905544,12.7796232 7.55810547,12.6201172 C7.66715549,12.4606112 7.72167969,12.2750662 7.72167969,12.0634766 C7.72167969,11.8030586 7.64518306,11.588217 7.4921875,11.4189453 C7.33919194,11.2496736 7.14550898,11.1438804 6.91113281,11.1015625 C6.73860591,11.0690103 6.39192969,11.0527344 5.87109375,11.0527344 L5.17285156,11.0527344 Z M10.3925781,9.84179688 L13.0341797,9.84179688 C13.6298858,9.84179688 14.0839828,9.88736934 14.3964844,9.97851562 C14.8164083,10.1022142 15.1761053,10.3219385 15.4755859,10.6376953 C15.7750666,10.9534521 16.0029289,11.3400042 16.1591797,11.7973633 C16.3154305,12.2547223 16.3935547,12.8186815 16.3935547,13.4892578 C16.3935547,14.0784535 16.3203132,14.5862609 16.1738281,15.0126953 C15.9947908,15.5335312 15.7392595,15.9550765 15.4072266,16.2773438 C15.1565743,16.5214856 14.818036,16.7119134 14.3916016,16.8486328 C14.0725896,16.9495448 13.6461615,17 13.1123047,17 L10.3925781,17 L10.3925781,9.84179688 Z M11.8378906,11.0527344 L11.8378906,15.7939453 L12.9169922,15.7939453 C13.32064,15.7939453 13.6119783,15.7711591 13.7910156,15.7255859 C14.0253918,15.6669919 14.2198885,15.567709 14.3745117,15.4277344 C14.5291349,15.2877597 14.6552729,15.057456 14.7529297,14.7368164 C14.8505864,14.4161768 14.8994141,13.9791694 14.8994141,13.4257812 C14.8994141,12.8723931 14.8505864,12.4475926 14.7529297,12.1513672 C14.6552729,11.8551417 14.5185556,11.6240243 14.3427734,11.4580078 C14.1669913,11.2919914 13.9440118,11.1796878 13.6738281,11.1210938 C13.4720042,11.0755206 13.0765003,11.0527344 12.4873047,11.0527344 L11.8378906,11.0527344 Z M17.6289062,17 L17.6289062,9.84179688 L22.5361328,9.84179688 L22.5361328,11.0527344 L19.0742188,11.0527344 L19.0742188,12.7470703 L22.0625,12.7470703 L22.0625,13.9580078 L19.0742188,13.9580078 L19.0742188,17 L17.6289062,17 Z" />
		<path fill="#E3294A" d="M20.4296208,29.0224901 C19.7797628,26.148915 20.4412734,23.5920228 21.9702496,23.5008859 C24.7197082,23.3370003 24.7464792,27.2216272 21.7000373,32.3602061 C21.1054658,31.2587999 20.6820061,30.1385004 20.4296208,29.0224901 Z M28.6706517,35.0101246 C30.5884995,35.3154486 32.4886308,36.6794782 32.1483971,38.2041149 C31.8009321,39.7611557 29.0851115,39.8025447 27.6600576,38.7993557 C25.9003009,37.5605473 24.4499045,36.2001535 23.3087775,34.7744903 C24.9995175,34.6431645 26.7961927,34.7117081 28.6706517,35.0101246 Z M19.110623,36.4740643 C19.0919302,36.5047651 19.0919302,36.5047651 19.0732396,36.5354714 C18.7109184,37.1307638 18.3248976,37.7687222 17.9403772,38.4067009 C17.8057855,38.6300092 17.7225896,38.7682533 17.5691656,39.0234347 C17.4542153,39.2147823 17.4542153,39.2147823 17.3904344,39.3123475 C15.4300169,41.7628694 13.5591694,42.6798977 12.8382821,41.4353115 C12.231375,40.387508 13.2964091,38.5550608 15.2870324,37.3047711 C16.6110219,36.4731871 18.1230623,35.815173 19.7863453,35.3699591 C19.5863924,35.6945546 19.3599331,36.0646315 19.110623,36.4740643 Z M20.6711654,33.9693204 C20.5222861,34.1865472 20.215314,34.6735884 19.7863453,35.3699591 C20.8967348,35.0727391 22.0745294,34.8703588 23.3087775,34.7744903 C22.6780545,33.9864988 22.1418129,33.1785677 21.7000373,32.3602061 C21.3891987,32.8845124 21.0463656,33.4218733 20.6711654,33.9693204 Z M15.8189114,38.1515914 C14.2248167,39.1528257 13.4470066,40.4910888 13.7036067,40.9340996 C13.7388337,40.9949179 13.9052016,41.0106713 14.3017556,40.8162935 C14.9235089,40.5115303 15.7208751,39.7985156 16.5712068,38.74283 C16.5968478,38.7000775 16.5968478,38.7000775 16.7120598,38.5082943 C16.8657714,38.2526345 16.9490982,38.114173 17.0839125,37.8904953 C17.2101384,37.681067 17.3365284,37.4716365 17.462199,37.263699 C16.8847105,37.5298511 16.3361303,37.8267317 15.8189114,38.1515914 Z M28.2356943,37.9816501 C29.1727736,38.6413218 31.0325591,38.6129787 31.1724037,37.9863148 C31.3405641,37.2327639 29.9354282,36.224072 28.5134303,35.9976879 C27.4837788,35.833766 26.480007,35.7422531 25.5071101,35.7175512 C26.3057589,36.5044058 27.2150524,37.2631533 28.2356943,37.9816501 Z M22.0297504,24.4991141 C21.3676061,24.5385822 20.8730988,26.4499679 21.4049898,28.8019107 C21.504312,29.2410987 21.6326915,29.6817497 21.7902255,30.1221853 C23.5123647,26.6204261 23.3495931,24.420443 22.0297504,24.4991141 Z M18.2190215,36.0155565 C18.2377631,35.9847664 18.2377631,35.9847664 18.256508,35.9539801 C19.0532327,34.6455485 19.6131043,33.7442425 19.8463016,33.4039889 C20.6579624,32.2197107 21.3003529,31.1182813 21.7902255,30.1221853 C22.4752481,32.0373797 23.711544,33.9485015 25.5071101,35.7175512 C22.4752405,35.6405719 19.7432124,36.2124288 17.462199,37.263699 C17.7200445,36.8370619 17.9748619,36.4167098 18.2190215,36.0155565 Z" />
	</g>
</svg>
