<svg xmlns="http://www.w3.org/2000/svg" width="12" height="12" viewBox="0 0 12 12">
  <path fill="#000000" fill-rule="evenodd" d="M12,9.65656566 C12,9.92592727 11.9057248,10.1548812 11.7171717,10.3434343 L10.3434343,11.7171717 C10.1548812,11.9057248 9.92592727,12 9.65656566,12 C9.38720404,12 9.1582501,11.9057248 8.96969697,11.7171717 L6,8.74747475 L3.03030303,11.7171717 C2.8417499,11.9057248 2.61279596,12 2.34343434,12 C2.07407273,12 1.84511879,11.9057248 1.65656566,11.7171717 L0.282828283,10.3434343 C0.0942751515,10.1548812 0,9.92592727 0,9.65656566 C0,9.38720404 0.0942751515,9.1582501 0.282828283,8.96969697 L3.25252525,6 L0.282828283,3.03030303 C0.0942751515,2.8417499 0,2.61279596 0,2.34343434 C0,2.07407273 0.0942751515,1.84511879 0.282828283,1.65656566 L1.65656566,0.282828283 C1.84511879,0.0942751515 2.07407273,0 2.34343434,0 C2.61279596,0 2.8417499,0.0942751515 3.03030303,0.282828283 L6,3.25252525 L8.96969697,0.282828283 C9.1582501,0.0942751515 9.38720404,0 9.65656566,0 C9.92592727,0 10.1548812,0.0942751515 10.3434343,0.282828283 L11.7171717,1.65656566 C11.9057248,1.84511879 12,2.07407273 12,2.34343434 C12,2.61279596 11.9057248,2.8417499 11.7171717,3.03030303 L8.74747475,6 L11.7171717,8.96969697 C11.9057248,9.1582501 12,9.38720404 12,9.65656566 Z"/>
</svg>
