<svg xmlns="http://www.w3.org/2000/svg" width="6" height="20" viewBox="0 0 6 20">
  <path fill="#FFFFFF" fill-rule="evenodd" d="M6,18.7265625 L6,14.2734375 C6,14.0546864 5.92578206,13.8710944 5.77734379,13.7226562 C5.62890552,13.5742181 5.45312597,13.5 5.25000006,13.5 L0.749999944,13.5 C0.546874029,13.5 0.371094482,13.5742181 0.22265621,13.7226562 C0.0742179377,13.8710944 0,14.0546864 0,14.2734375 L0,18.7265625 C0,18.9453136 0.0742179377,19.1289056 0.22265621,19.2773438 C0.371094482,19.4257819 0.546874029,19.5 0.749999944,19.5 L5.25000006,19.5 C5.45312597,19.5 5.62890552,19.4257819 5.77734379,19.2773438 C5.92578206,19.1289056 6,18.9453136 6,18.7265625 Z M5.5195912,10.0098011 L6,0.61409823 C6,0.450337875 5.93185758,0.32069622 5.79557066,0.22516935 C5.6183978,0.075055695 5.45485589,0 5.30494041,0 L0.695059585,0 C0.545144115,0 0.381602199,0.075055695 0.204429343,0.22516935 C0.0681424151,0.32069622 0,0.46398438 0,0.655038105 L0.347529867,10.0098011 C0.347529867,10.1462681 0.415672283,10.2588516 0.55195906,10.3475551 C0.688245988,10.4362587 0.851787754,10.4806098 1.04258945,10.4806098 L4.82453147,10.4806098 C5.01533317,10.4806098 5.17546783,10.4362587 5.30494041,10.3475551 C5.434413,10.2588516 5.50596251,10.1462681 5.5195912,10.0098011 Z"/>
</svg>
