<svg xmlns="http://www.w3.org/2000/svg" width="20" height="20" viewBox="0 0 20 20">
  <g fill="none" fill-rule="evenodd">
    <path fill="#539D3C" d="M20,3.75 L20,16.25 C20,17.2829913 19.6332502,18.166229 18.8997396,18.8997396 C18.166229,19.6332502 17.2829913,20 16.25,20 L3.75,20 C2.71700872,20 1.83377103,19.6332502 1.10026042,18.8997396 C0.366749805,18.166229 0,17.2829913 0,16.25 L0,3.75 C0,2.71700872 0.366749805,1.83377103 1.10026042,1.10026042 C1.83377103,0.366749805 2.71700872,0 3.75,0 L16.25,0 C17.2829913,0 18.166229,0.366749805 18.8997396,1.10026042 C19.6332502,1.83377103 20,2.71700872 20,3.75 Z"/>
    <path fill="#FFFFFF" d="M8.91927083,15.2473958 L16.9140625,7.25260417 C17.0789939,7.08767279 17.1614583,6.89236224 17.1614583,6.66666667 C17.1614583,6.44097109 17.0789939,6.24566055 16.9140625,6.08072917 L15.5859375,4.75260417 C15.4210061,4.58767279 15.2256956,4.50520833 15,4.50520833 C14.7743044,4.50520833 14.5789939,4.58767279 14.4140625,4.75260417 L8.33333333,10.8333333 L5.5859375,8.0859375 C5.42100612,7.92100612 5.22569557,7.83854167 5,7.83854167 C4.77430443,7.83854167 4.57899388,7.92100612 4.4140625,8.0859375 L3.0859375,9.4140625 C2.92100612,9.57899388 2.83854167,9.77430443 2.83854167,10 C2.83854167,10.2256956 2.92100612,10.4210061 3.0859375,10.5859375 L7.74739583,15.2473958 C7.91232721,15.4123272 8.10763776,15.4947917 8.33333333,15.4947917 C8.55902891,15.4947917 8.75433945,15.4123272 8.91927083,15.2473958 Z"/>
  </g>
</svg>
