<svg xmlns="http://www.w3.org/2000/svg" width="20" height="20" viewBox="0 0 20 20" xmlns:xlink="http://www.w3.org/1999/xlink">
  <defs>
    <path id="a" d="M20,3.75 L20,16.25 C20,17.2829913 19.6332502,18.166229 18.8997396,18.8997396 C18.166229,19.6332502 17.2829913,20 16.25,20 L3.75,20 C2.71700872,20 1.83377103,19.6332502 1.10026042,18.8997396 C0.366749805,18.166229 0,17.2829913 0,16.25 L0,3.75 C0,2.71700872 0.366749805,1.83377103 1.10026042,1.10026042 C1.83377103,0.366749805 2.71700872,0 3.75,0 L16.25,0 C17.2829913,0 18.166229,0.366749805 18.8997396,1.10026042 C19.6332502,1.83377103 20,2.71700872 20,3.75 Z"/>
    <mask id="b" width="20" height="20" x="0" y="0" fill="white">
      <use xlink:href="#a"/>
    </mask>
  </defs>
  <use fill="#FFFFFF" fill-rule="evenodd" stroke="#CCCCCC" stroke-width="4" mask="url(#b)" xlink:href="#a"/>
</svg>
