<svg xmlns="http://www.w3.org/2000/svg" width="22" height="17" viewBox="0 0 22 17">
  <path fill="#FFFFFF" fill-rule="evenodd" d="M9.34,16.6172986 L21.62,4.25 C21.8733346,3.99486444 22,3.69273476 22,3.3436019 C22,2.99446903 21.8733346,2.69233935 21.62,2.43720379 L19.58,0.38270142 C19.3266654,0.12756586 19.0266684,0 18.68,0 C18.3333316,0 18.0333346,0.12756586 17.78,0.38270142 L8.44,9.7890995 L4.22,5.53909953 C3.9666654,5.28396397 3.6666684,5.1563981 3.32,5.1563981 C2.9733316,5.1563981 2.6733346,5.28396397 2.42,5.53909953 L0.38,7.5936019 C0.1266654,7.8487375 0,8.1508671 0,8.5 C0,8.8491329 0.1266654,9.1512625 0.38,9.4063981 L7.54,16.6172986 C7.7933346,16.8724341 8.0933316,17 8.44,17 C8.7866684,17 9.0866654,16.8724341 9.34,16.6172986 Z"/>
</svg>
