<svg xmlns="http://www.w3.org/2000/svg" width="22" height="23" viewBox="0 0 22 23">
  <path fill="#FFFFFF" fill-rule="evenodd" d="M22,4.64285714 L22,21.3571429 C22,21.8020856 21.8374272,22.1871264 21.5122768,22.5122768 C21.1871264,22.8374272 20.8020856,23 20.3571429,23 L1.64285714,23 C1.19791444,23 0.81287365,22.8374272 0.487723214,22.5122768 C0.162572779,22.1871264 0,21.8020856 0,21.3571429 L0,4.64285714 C0,4.19791444 0.162572779,3.81287365 0.487723214,3.48772321 C0.81287365,3.16257278 1.19791444,3 1.64285714,3 L4,3 L4,2.05357143 C4,1.48883646 4.14750543,1.00539636 4.54966518,0.603236607 C4.95182493,0.201076858 5.43526503,0 6,0 L7.16071429,0 C7.72544925,0 8.20888936,0.201076858 8.61104911,0.603236607 C9.01320886,1.00539636 9,1.48883646 9,2.05357143 L9,3 L13,3 L12.9464286,2.05357143 C12.9464286,1.48883646 13.1475054,1.00539636 13.5496652,0.603236607 C13.9518249,0.201076858 14.435265,0 15,0 L16.0178571,0 C16.5825921,0 17.0660322,0.201076858 17.468192,0.603236607 C17.8703517,1.00539636 18.0714286,1.48883646 18.0714286,2.05357143 L18.0714286,3 L20.3571429,3 C20.8020856,3 21.1871264,3.16257278 21.5122768,3.48772321 C21.8374272,3.81287365 22,4.19791444 22,4.64285714 Z M2,21 L20,21 L20,8 L2,8 L2,21 Z M7,5.63636364 L7,2.36363636 C7,2.25757523 6.97656273,2.17045489 6.9296875,2.10227273 C6.88281227,2.03409057 6.82291703,2 6.75,2 L6.25,2 C6.17708297,2 6.11718773,2.03409057 6.0703125,2.10227273 C6.02343727,2.17045489 6,2.25757523 6,2.36363636 L6,5.63636364 C6,5.74242477 6.02343727,5.82954511 6.0703125,5.89772727 C6.11718773,5.96590943 6.17708297,6 6.25,6 L6.75,6 C6.82291703,6 6.88281227,5.96590943 6.9296875,5.89772727 C6.97656273,5.82954511 7,5.74242477 7,5.63636364 Z M16,5.63636364 L16,2.36363636 C16,2.25757523 15.9765627,2.17045489 15.9296875,2.10227273 C15.8828123,2.03409057 15.822917,2 15.75,2 L15.25,2 C15.177083,2 15.1171877,2.03409057 15.0703125,2.10227273 C15.0234373,2.17045489 15,2.25757523 15,2.36363636 L15,5.63636364 C15,5.74242477 15.0234373,5.82954511 15.0703125,5.89772727 C15.1171877,5.96590943 15.177083,6 15.25,6 L15.75,6 C15.822917,6 15.8828123,5.96590943 15.9296875,5.89772727 C15.9765627,5.82954511 16,5.74242477 16,5.63636364 Z M14.875,17.2361111 L14.2361111,17.875 C14.1527774,17.9583338 14.0509265,18 13.9305556,18 C13.8101846,18 13.7037042,17.9583338 13.6111111,17.875 L11,15.25 L8.38888889,17.875 C8.29629583,17.9583338 8.18981542,18 8.06944444,18 C7.94907347,18 7.84722264,17.9583338 7.76388889,17.875 L7.125,17.2361111 C7.04166625,17.1527774 7,17.0509265 7,16.9305556 C7,16.8101846 7.04166625,16.7037042 7.125,16.6111111 L9.75,14 L7.125,11.3888889 C7.04166625,11.2962958 7,11.1898154 7,11.0694444 C7,10.9490735 7.04166625,10.8472226 7.125,10.7638889 L7.76388889,10.125 C7.84722264,10.0416663 7.94907347,10 8.06944444,10 C8.18981542,10 8.29629583,10.0416663 8.38888889,10.125 L11,12.7361111 L13.6111111,10.125 C13.7037042,10.0416663 13.8101846,10 13.9305556,10 C14.0509265,10 14.1527774,10.0416663 14.2361111,10.125 L14.875,10.7638889 C14.9583337,10.8472226 15,10.9490735 15,11.0694444 C15,11.1898154 14.9583337,11.2962958 14.875,11.3888889 L12.2638889,14 L14.875,16.6111111 C14.9583337,16.7037042 15,16.8101846 15,16.9305556 C15,17.0509265 14.9583337,17.1527774 14.875,17.2361111 Z"/>
</svg>
