<svg xmlns="http://www.w3.org/2000/svg" width="24" height="23" viewBox="0 0 24 23">
  <path fill="#FFFFFF" fill-rule="evenodd" d="M13.4983044,0.914324028 L23.7723918,20.4207874 C24.0845401,20.9939487 24.0756217,21.5671013 23.7456364,22.1402625 C23.5940215,22.4040986 23.3866689,22.6133448 23.1235725,22.7680073 C22.860476,22.9226699 22.5773172,23 22.2740874,23 L1.72591262,23 C1.42268283,23 1.13952396,22.9226699 0.876427529,22.7680073 C0.613331094,22.6133448 0.405978539,22.4040986 0.254363645,22.1402625 C-0.0756217145,21.5671013 -0.0845401039,20.9939487 0.227608209,20.4207874 L10.5016956,0.914324028 C10.6533105,0.632292321 10.8628926,0.409399637 11.1304483,0.245639291 C11.398004,0.0818789449 11.6878517,0 12,0 C12.3121483,0 12.601996,0.0818789449 12.8695517,0.245639291 C13.1371074,0.409399637 13.3466895,0.632292321 13.4983044,0.914324028 Z M14.0052851,19.484375 L14.0052851,16.515625 C14.0052851,16.3697909 13.9557411,16.2473963 13.8566515,16.1484375 C13.7575619,16.0494787 13.6402207,16 13.5046245,16 L10.5006606,16 C10.3650644,16 10.2477232,16.0494787 10.1486336,16.1484375 C10.049544,16.2473963 10,16.3697909 10,16.515625 L10,19.484375 C10,19.6302091 10.049544,19.7526037 10.1486336,19.8515625 C10.2477232,19.9505213 10.3650644,20 10.5006606,20 L13.5046245,20 C13.6402207,20 13.7575619,19.9505213 13.8566515,19.8515625 C13.9557411,19.7526037 14.0052851,19.6302091 14.0052851,19.484375 Z M13.6845894,13.6732007 L14.0052851,7.40939882 C14.0052851,7.30022525 13.9597968,7.21379748 13.8688188,7.1501129 C13.7505475,7.05003713 13.6413755,7 13.5412998,7 L10.4639853,7 C10.3639096,7 10.2547376,7.05003713 10.1364663,7.1501129 C10.0454883,7.21379748 10,7.30932292 10,7.43669207 L10.2319927,13.6732007 C10.2319927,13.7641787 10.277481,13.8392344 10.3684589,13.8983701 C10.4594369,13.9575058 10.5686088,13.9870732 10.695978,13.9870732 L13.220604,13.9870732 C13.3479732,13.9870732 13.4548707,13.9575058 13.5412998,13.8983701 C13.6277289,13.8392344 13.6754916,13.7641787 13.6845894,13.6732007 Z"/>
</svg>
