<svg xmlns="http://www.w3.org/2000/svg" width="24" height="24" viewBox="0 0 24 24">
  <path fill="#FFFFFF" fill-rule="evenodd" d="M10.34,19.6172986 L22.62,7.25 C22.8733346,6.99486444 23,6.69273476 23,6.3436019 C23,5.99446903 22.8733346,5.69233935 22.62,5.43720379 L20.58,3.38270142 C20.3266654,3.12756586 20.0266684,3 19.68,3 C19.3333316,3 19.0333346,3.12756586 18.78,3.38270142 L9.44,12.7890995 L5.22,8.53909953 C4.9666654,8.28396397 4.6666684,8.1563981 4.32,8.1563981 C3.9733316,8.1563981 3.6733346,8.28396397 3.42,8.53909953 L1.38,10.5936019 C1.1266654,10.8487375 1,11.1508671 1,11.5 C1,11.8491329 1.1266654,12.1512625 1.38,12.4063981 L8.54,19.6172986 C8.7933346,19.8724341 9.0933316,20 9.44,20 C9.7866684,20 10.0866654,19.8724341 10.34,19.6172986 Z"/>
</svg>
