<svg xmlns="http://www.w3.org/2000/svg" width="24" height="23" viewBox="0 0 24 23">
  <path fill="#FFFFFF" fill-rule="evenodd" d="M24,8.91304348 C24,9.12560493 23.8750013,9.35748667 23.625,9.60869565 L18.3894231,14.7391304 L19.6298077,21.9855072 C19.6394231,22.0531404 19.6442308,22.1497578 19.6442308,22.2753623 C19.6442308,22.4782619 19.5937505,22.6497578 19.4927885,22.7898551 C19.3918264,22.9299524 19.2451933,23 19.0528846,23 C18.8701914,23 18.6778856,22.9420296 18.4759615,22.826087 L12,19.4057971 L5.52403846,22.826087 C5.31249894,22.9420296 5.12019317,23 4.94711538,23 C4.7451913,23 4.5937505,22.9299524 4.49278846,22.7898551 C4.39182642,22.6497578 4.34134615,22.4782619 4.34134615,22.2753623 C4.34134615,22.217391 4.35096144,22.1207736 4.37019231,21.9855072 L5.61057692,14.7391304 L0.360576923,9.60869565 C0.120191106,9.34782478 0,9.11594304 0,8.91304348 C0,8.55555377 0.269228077,8.33333377 0.807692308,8.24637681 L8.04807692,7.1884058 L11.2932692,0.594202899 C11.4759625,0.198065652 11.711537,0 12,0 C12.288463,0 12.5240375,0.198065652 12.7067308,0.594202899 L15.9519231,7.1884058 L23.1923077,8.24637681 C23.7307719,8.33333377 24,8.55555377 24,8.91304348 Z"/>
</svg>
