<svg xmlns="http://www.w3.org/2000/svg" xmlns:xlink="http://www.w3.org/1999/xlink" version="1.1" id="Layer_1" x="0" y="0" width="70" height="48" viewBox="0 0 70 48" enable-background="new 0 0 70 48" xml:space="preserve">
  <path fill="#FFFFFF" d="M52.44 13.86c-1.01 0-1.89 0.17-1.89 1.28 0 0.56 0.12 0.95 0.27 1.28h3.25c0.07-0.13 0.26-0.65 0.26-1.28C54.33 14.03 53.46 13.86 52.44 13.86M49.64 16.81l0.31-0.11c-0.28-0.51-0.46-1.1-0.46-1.64 0-1.92 1.19-2.37 2.95-2.37 1.77 0 2.95 0.54 2.95 2.46 0 0.46-0.1 0.83-0.3 1.28h1.93v1.16h-7.38V16.81z"/>
  <polygon fill="#FFFFFF" points="55.25 43.45 55.25 44.65 48.79 44.65 48.79 46.75 47.71 46.75 47.71 41.34 48.79 41.34 48.79 43.45 "/>
  <path fill="#FFFFFF" d="M51.26 36.8c-0.53 0-0.7 0.42-0.7 0.95 0 0.57 0.13 1.04 0.27 1.35h4.42v1.16h-7.54v-1.16h2.15c-0.2-0.41-0.36-1.04-0.36-1.49 0-1.41 0.67-1.97 1.81-1.97h3.95l-0.02 1.16H51.26z"/>
  <path fill="#FFFFFF" d="M51.47 23.73c1.57 0 2.83-0.26 2.83-1.84 0-1.57-1.26-1.81-2.83-1.81 -1.57 0-2.84 0.25-2.84 1.83C48.64 23.49 49.9 23.73 51.47 23.73M51.47 24.98c-2.05 0-3.93-0.6-3.93-3.08 0-2.55 1.88-3.07 3.93-3.07 2.04 0 3.92 0.59 3.92 3.07C55.4 24.46 53.51 24.98 51.47 24.98"/>
  <path fill="#FFFFFF" d="M50.55 3.04c0-0.13-0.02-0.92 0.72-0.92h3.98V0.95h-3.95c-1.13 0-1.81 0.58-1.81 1.97 0 0.55 0.16 1.21 0.46 1.7l-0.31 0.11v0.78h5.61V4.35h-4.42C50.68 4.04 50.56 3.6 50.55 3.04"/>
  <path fill="#FFFFFF" d="M51.98 10.44V7.99c-0.75 0-1.53 0.19-1.53 1.13C50.45 10.11 51.09 10.38 51.98 10.44M52.94 10.44c0.98-0.09 1.37-0.52 1.37-1.64 0-0.52-0.1-1.06-0.31-1.71h1.02c0.28 0.69 0.38 1.36 0.38 2 0 1.94-1.18 2.55-2.95 2.56 -1.73 0-2.95-0.68-2.95-2.56 0-1.98 1.45-2.27 3-2.28h0.45V10.44z"/>
  <path fill="#FFFFFF" d="M52.03 33.35v-2.44c-0.75 0.01-1.53 0.19-1.53 1.13C50.5 33.02 51.14 33.29 52.03 33.35M52.94 33.36c0.98-0.09 1.37-0.52 1.37-1.64 0-0.52-0.1-1.06-0.31-1.71h1.02c0.28 0.69 0.38 1.36 0.38 2 0 1.94-1.18 2.55-2.95 2.55 -1.73 0-2.95-0.68-2.95-2.55 0-1.98 1.45-2.28 3-2.28h0.45V33.36z"/>
  <path fill="#FFFFFF" d="M59.85 42.14h4.78c1.69 0 1.82 1.01 1.82 1.64s-0.13 1.64-1.82 1.64h-4.78v1.15l4.93 0c2.42 0 2.8-1.74 2.8-2.79 0-1.05-0.38-2.8-2.8-2.8l-4.93 0V42.14z"/>
  <path fill="#FFFFFF" d="M60.17 32.96c0.42 0 0.76 0.34 0.76 0.76 0 0.43-0.34 0.76-0.76 0.76 -0.43 0-0.77-0.34-0.77-0.76C59.4 33.3 59.74 32.96 60.17 32.96"/>
  <path fill="#FFFFFF" d="M66.34 34.3h-4.53v-1.15l4.43 0c0.2 0 0.29-0.01 0.29-0.32v-0.19h1.02c0.02 0.13 0.02 0.27 0.02 0.54C67.57 33.84 67.23 34.3 66.34 34.3"/>
  <path fill="#FFFFFF" d="M66.34 11.93h-4.53v-1.15l4.43 0c0.2 0 0.29-0.01 0.29-0.32l0-0.19h1.02c0.02 0.13 0.02 0.27 0.02 0.54C67.57 11.47 67.23 11.93 66.34 11.93"/>
  <polygon fill="#FFFFFF" points="61.81 28.02 61.81 26.77 67.57 28.95 67.57 29.89 61.81 32.09 61.81 30.83 66.18 29.43 "/>
  <path fill="#FFFFFF" d="M64.16 22.82c-0.75 0-1.53 0.19-1.53 1.12 0 0.98 0.64 1.25 1.53 1.3V22.82zM65.11 25.22c0.98-0.09 1.37-0.51 1.37-1.6 0-0.51-0.1-1.03-0.31-1.67h1.02c0.28 0.68 0.37 1.33 0.37 1.95 0 1.89-1.18 2.49-2.95 2.49 -1.73 0-2.95-0.67-2.95-2.49 0-1.93 1.45-2.22 3-2.22l0.45 0V25.22z"/>
  <path fill="#FFFFFF" d="M62.81 17.63c-0.04 0.23-0.06 0.48-0.06 0.77 0 0.43 0.1 0.8 0.23 1.09h4.44v1.15H61.8v-0.77l0.31-0.11c-0.27-0.35-0.44-0.98-0.44-1.39 0-0.24 0-0.54 0.05-0.75L62.81 17.63z"/>
  <path fill="#FFFFFF" d="M65.73 12.86c0.9 0 1.84 0.56 1.84 2.28 0 0.54-0.14 1.35-0.31 1.76l-1.09 0c0.16-0.45 0.34-1.07 0.34-1.77 0-0.9-0.38-1.15-0.76-1.15 -0.37 0-0.62 0.13-0.7 1 -0.15 1.65-0.76 1.98-1.6 1.98 -0.84 0-1.78-0.52-1.78-2.13 0-0.51 0.07-1.12 0.33-1.7l1.06 0c-0.18 0.54-0.33 1.05-0.33 1.71 0 0.86 0.32 1.03 0.72 1.03 0.32 0 0.49-0.17 0.57-1.01C64.17 13.24 64.74 12.86 65.73 12.86"/>
  <path fill="#FFFFFF" d="M67.49 6.13c0.05 0.26 0.08 0.64 0.08 1.06 0 0.91-0.47 1.61-1.57 1.61l-3.2 0v0.97h-0.93l-0.06-0.97h-1.41l-0.16-1.13h1.57V6.14h0.99v1.54h3.06c0.47 0 0.65-0.25 0.65-0.83 0-0.22-0.02-0.61-0.04-0.71H67.49z"/>
  <polygon fill="#FFFFFF" points="65.86 2.83 61.81 1.43 61.81 0.24 69.19 3.09 69.19 4.17 67.15 3.38 61.81 5.32 61.81 4.04 "/>
  <path fill="#FFFFFF" d="M62.73 37.4c0-0.13-0.02-0.9 0.72-0.9h3.98v-1.14h-3.95c-1.13 0-1.81 0.56-1.81 1.93 0 0.54 0.16 1.18 0.46 1.66l-0.31 0.11v0.76h5.61v-1.13h-4.42C62.86 38.38 62.73 37.95 62.73 37.4"/>
  <path fill="#FFFFFF" d="M60.17 10.5c0.42 0 0.76 0.34 0.76 0.76s-0.34 0.76-0.76 0.76c-0.43 0-0.77-0.34-0.77-0.76C59.4 10.84 59.74 10.5 60.17 10.5"/>
  <path fill="#FFFFFF" d="M38.09 0.56H3.18c-1.09 0-2.37 1.06-2.37 2.17v25.29c0 11.11 8.84 18.95 19.75 18.95 10.91 0 19.75-7.84 19.75-18.95V2.84C40.31 1.73 39.18 0.56 38.09 0.56M18.02 23.39c-4.83 1.25-9.73-1.57-10.96-6.31 -1.23-4.74 1.69-9.59 6.51-10.84 4.82-1.25 9.73 1.57 10.96 6.31C25.76 17.28 22.85 22.14 18.02 23.39"/>
</svg>
