<svg version="1.1" id="Layer_1" xmlns="http://www.w3.org/2000/svg" xmlns:xlink="http://www.w3.org/1999/xlink" x="0px" y="0px"
	 width="70px" height="48px" viewBox="0 0 70 48" enable-background="new 0 0 70 48" xml:space="preserve">
<path fill="#FFFFFF" d="M52.442,13.858c-1.01,0-1.888,0.171-1.888,1.279c0,0.556,0.116,0.95,0.272,1.283h3.245
	c0.065-0.128,0.258-0.648,0.258-1.283C54.33,14.029,53.462,13.858,52.442,13.858 M49.637,16.806l0.313-0.114
	c-0.282-0.509-0.461-1.096-0.461-1.641c0-1.917,1.191-2.373,2.953-2.373c1.773,0,2.954,0.542,2.954,2.46
	c0,0.455-0.104,0.829-0.305,1.283h1.93v1.162h-7.385V16.806z"/>
<polygon fill="#FFFFFF" points="55.249,43.452 55.249,44.646 48.788,44.646 48.788,46.745 47.705,46.745 47.705,41.339 
	48.788,41.339 48.788,43.452 "/>
<path fill="#FFFFFF" d="M51.257,36.796c-0.529,0-0.702,0.418-0.702,0.947c0,0.57,0.127,1.041,0.272,1.348h4.422v1.156h-7.544v-1.156
	h2.145c-0.203-0.41-0.36-1.039-0.36-1.488c0-1.406,0.674-1.969,1.808-1.969h3.952l-0.018,1.162H51.257z"/>
<path fill="#FFFFFF" d="M51.473,23.734c1.572,0,2.834-0.26,2.834-1.836c0-1.575-1.262-1.813-2.834-1.813
	c-1.573,0-2.837,0.253-2.837,1.828C48.636,23.488,49.899,23.734,51.473,23.734 M51.473,24.98c-2.048,0-3.928-0.6-3.928-3.076
	c0-2.549,1.88-3.066,3.928-3.066c2.043,0,3.923,0.592,3.924,3.067C55.396,24.457,53.514,24.98,51.473,24.98"/>
<path fill="#FFFFFF" d="M50.554,3.036c0-0.13-0.019-0.92,0.722-0.92h3.975V0.95h-3.953c-1.134,0.001-1.808,0.577-1.807,1.971
	c0,0.545,0.159,1.205,0.46,1.702l-0.313,0.113v0.778h5.613V4.351h-4.423C50.682,4.044,50.555,3.602,50.554,3.036"/>
<path fill="#FFFFFF" d="M51.983,10.436V7.994c-0.746,0.004-1.531,0.191-1.531,1.129C50.452,10.108,51.092,10.382,51.983,10.436
	 M52.94,10.438c0.98-0.087,1.37-0.516,1.37-1.642c0-0.524-0.099-1.057-0.315-1.715h1.025c0.28,0.694,0.376,1.36,0.375,2.001
	c0.001,1.936-1.18,2.554-2.953,2.555c-1.731,0-2.952-0.682-2.952-2.555c0-1.981,1.448-2.273,3.002-2.277h0.448V10.438z"/>
<path fill="#FFFFFF" d="M52.034,33.345v-2.443c-0.746,0.006-1.533,0.193-1.533,1.133C50.501,33.019,51.143,33.292,52.034,33.345
	 M52.94,33.362c0.98-0.09,1.37-0.521,1.37-1.643c0-0.523-0.099-1.057-0.315-1.715h1.025c0.28,0.693,0.376,1.363,0.376,2.002
	c-0.001,1.936-1.181,2.553-2.954,2.553c-1.731,0-2.952-0.682-2.952-2.553c0-1.982,1.448-2.279,3.002-2.279h0.448V33.362z"/>
<path fill="#FFFFFF" d="M59.848,42.136h4.782c1.693,0,1.822,1.012,1.822,1.639s-0.131,1.635-1.823,1.635h-4.781v1.152l4.929,0.002
	c2.425,0.002,2.804-1.736,2.804-2.789c0.001-1.053-0.379-2.797-2.804-2.797l-4.929,0.002V42.136z"/>
<path fill="#FFFFFF" d="M60.169,32.96c0.423,0,0.76,0.338,0.76,0.762c0,0.426-0.337,0.764-0.76,0.764
	c-0.433,0-0.767-0.338-0.767-0.764C59.402,33.298,59.735,32.96,60.169,32.96"/>
<path fill="#FFFFFF" d="M66.338,34.296h-4.53v-1.154l4.425-0.002c0.201,0,0.291-0.012,0.291-0.318v-0.195h1.021
	c0.016,0.127,0.021,0.268,0.021,0.535C67.565,33.835,67.232,34.296,66.338,34.296"/>
<path fill="#FFFFFF" d="M66.337,11.929h-4.529v-1.155l4.427-0.001c0.199,0,0.291-0.014,0.291-0.318l-0.002-0.193h1.02
	c0.017,0.125,0.022,0.266,0.022,0.535C67.565,11.467,67.232,11.929,66.337,11.929"/>
<polygon fill="#FFFFFF" points="61.808,28.021 61.808,26.767 67.565,28.95 67.565,29.892 61.808,32.087 61.808,30.827 
	66.177,29.425 "/>
<path fill="#FFFFFF" d="M64.155,22.82c-0.748,0.002-1.532,0.188-1.532,1.117c0,0.976,0.639,1.247,1.532,1.299V22.82z M65.113,25.224
	c0.981-0.088,1.368-0.508,1.368-1.604c0-0.513-0.097-1.032-0.313-1.673h1.023c0.281,0.677,0.374,1.327,0.374,1.952
	c0,1.889-1.18,2.49-2.95,2.49c-1.734,0-2.955-0.666-2.955-2.49c0-1.933,1.451-2.225,3.003-2.222l0.45,0.001V25.224z"/>
<path fill="#FFFFFF" d="M62.812,17.631c-0.042,0.23-0.056,0.483-0.056,0.773c0,0.427,0.096,0.801,0.233,1.091h4.438v1.151H61.8
	v-0.771l0.312-0.112c-0.269-0.349-0.44-0.981-0.44-1.387c0-0.245,0-0.536,0.048-0.746L62.812,17.631z"/>
<path fill="#FFFFFF" d="M65.729,12.863c0.895,0,1.837,0.557,1.837,2.276c0,0.538-0.144,1.347-0.313,1.759l-1.09,0.001
	c0.158-0.447,0.338-1.068,0.338-1.771c0-0.897-0.382-1.153-0.763-1.153c-0.373,0-0.618,0.132-0.698,1
	c-0.146,1.645-0.764,1.977-1.598,1.977c-0.84,0-1.781-0.52-1.781-2.132c0-0.51,0.07-1.121,0.329-1.7l1.064,0.001
	c-0.18,0.544-0.327,1.054-0.327,1.71c0,0.855,0.317,1.033,0.718,1.033c0.324,0,0.493-0.166,0.571-1.011
	C64.168,13.238,64.736,12.863,65.729,12.863"/>
<path fill="#FFFFFF" d="M67.49,6.133c0.053,0.259,0.075,0.637,0.075,1.063c0,0.905-0.469,1.613-1.571,1.613l-3.199,0v0.974h-0.927
	l-0.061-0.974h-1.414l-0.16-1.132h1.574V6.14h0.987v1.539h3.062c0.473,0,0.646-0.253,0.646-0.835
	c0.001-0.225-0.021-0.608-0.038-0.71H67.49z"/>
<polygon fill="#FFFFFF" points="65.857,2.826 61.808,1.431 61.808,0.237 69.188,3.085 69.188,4.166 67.152,3.377 61.808,5.324 
	61.808,4.042 "/>
<path fill="#FFFFFF" d="M62.734,37.396c0-0.127-0.021-0.898,0.719-0.898h3.976v-1.141h-3.953c-1.132,0-1.806,0.564-1.806,1.926
	c0,0.535,0.158,1.18,0.459,1.664l-0.313,0.111v0.76h5.613v-1.135h-4.425C62.859,38.382,62.734,37.948,62.734,37.396"/>
<path fill="#FFFFFF" d="M60.169,10.501c0.423,0,0.76,0.336,0.76,0.762s-0.337,0.762-0.76,0.762c-0.433,0-0.767-0.336-0.767-0.762
	C59.402,10.836,59.736,10.501,60.169,10.501"/>
<path fill="#FFFFFF" d="M38.092,0.555H3.181c-1.087,0-2.369,1.062-2.369,2.168v25.287c0,11.105,8.843,18.947,19.749,18.947
	c10.908,0,19.75-7.842,19.75-18.947V2.837C40.312,1.731,39.179,0.555,38.092,0.555 M18.024,23.385
	c-4.826,1.253-9.732-1.573-10.962-6.31c-1.229-4.737,1.686-9.592,6.511-10.844c4.824-1.251,9.732,1.574,10.96,6.311
	C25.761,17.28,22.848,22.135,18.024,23.385"/>
</svg>
