<svg version="1.1" id="Layer_1" xmlns="http://www.w3.org/2000/svg" xmlns:xlink="http://www.w3.org/1999/xlink" x="0px" y="0px"
	 width="77px" height="53px" viewBox="0 0 77 53" enable-background="new 0 0 77 53" xml:space="preserve">
<path fill="#0E56A7" d="M58.059,15.317c-1.135,0-2.121,0.192-2.121,1.439c0,0.625,0.129,1.068,0.305,1.442h3.648
	c0.074-0.144,0.292-0.729,0.292-1.442C60.183,15.51,59.208,15.317,58.059,15.317 M54.905,18.633l0.354-0.128
	c-0.318-0.572-0.521-1.232-0.521-1.846c0-2.155,1.34-2.668,3.32-2.668c1.994,0,3.323,0.61,3.323,2.767
	c0,0.511-0.116,0.932-0.343,1.442h2.17v1.307h-8.304V18.633L54.905,18.633z"/>
<polygon fill="#0E56A7" points="61.217,48.597 61.217,49.941 53.952,49.941 53.952,52.3 52.732,52.3 52.732,46.221 53.952,46.221 
	53.952,48.597 "/>
<path fill="#0E56A7" d="M56.728,41.111c-0.595,0-0.79,0.471-0.79,1.065c0,0.642,0.143,1.171,0.308,1.516h4.972v1.3h-8.484v-1.3
	h2.412c-0.229-0.459-0.404-1.168-0.404-1.672c0-1.581,0.758-2.216,2.034-2.216h4.442l-0.02,1.307H56.728z"/>
<path fill="#0E56A7" d="M56.97,26.423c1.768,0,3.187-0.292,3.187-2.064c0-1.771-1.419-2.039-3.187-2.039
	c-1.769,0-3.189,0.284-3.189,2.056C53.78,26.146,55.199,26.423,56.97,26.423 M56.97,27.825c-2.302,0-4.417-0.676-4.417-3.46
	c0-2.866,2.115-3.448,4.417-3.448c2.297,0,4.412,0.667,4.412,3.449C61.382,27.236,59.265,27.825,56.97,27.825"/>
<path fill="#0E56A7" d="M55.938,3.148c0-0.146-0.022-1.035,0.811-1.035h4.472V0.802h-4.445c-1.276,0.001-2.034,0.648-2.032,2.216
	c0,0.613,0.178,1.355,0.517,1.914L54.907,5.06v0.875h6.312V4.626h-4.975C56.08,4.281,55.938,3.784,55.938,3.148"/>
<path fill="#0E56A7" d="M57.543,11.469V8.724c-0.839,0.004-1.72,0.214-1.72,1.27C55.823,11.101,56.541,11.409,57.543,11.469
	 M58.619,11.472c1.103-0.098,1.542-0.581,1.542-1.847c0-0.589-0.112-1.188-0.354-1.928h1.15c0.316,0.78,0.424,1.529,0.422,2.25
	c0.002,2.177-1.327,2.872-3.321,2.874c-1.945,0-3.318-0.767-3.318-2.874c0-2.228,1.627-2.556,3.376-2.561h0.503V11.472z"/>
<path fill="#0E56A7" d="M57.602,37.232v-2.747c-0.839,0.007-1.724,0.218-1.724,1.273C55.878,36.866,56.599,37.172,57.602,37.232
	 M58.619,37.25c1.103-0.101,1.542-0.586,1.542-1.847c0-0.589-0.112-1.188-0.354-1.929h1.15c0.316,0.78,0.424,1.533,0.424,2.252
	c-0.002,2.176-1.329,2.87-3.323,2.87c-1.945,0-3.318-0.767-3.318-2.87c0-2.229,1.627-2.563,3.376-2.563h0.503V37.25z"/>
<path fill="#0E56A7" d="M66.388,47.116h5.379c1.904,0,2.049,1.141,2.049,1.846S73.666,50.8,71.765,50.8h-5.377v1.296l5.544,0.002
	c2.728,0.003,3.153-1.952,3.153-3.136c0-1.185-0.426-3.146-3.153-3.146l-5.544,0.002V47.116z"/>
<path fill="#0E56A7" d="M66.75,36.798c0.475,0,0.854,0.38,0.854,0.859c0,0.479-0.38,0.858-0.854,0.858
	c-0.487,0-0.863-0.38-0.863-0.858C65.887,37.178,66.26,36.798,66.75,36.798"/>
<path fill="#0E56A7" d="M73.687,38.301h-5.094v-1.296l4.975-0.003c0.227,0,0.327-0.015,0.327-0.357v-0.22h1.148
	c0.018,0.143,0.024,0.301,0.024,0.602C75.065,37.782,74.692,38.301,73.687,38.301"/>
<path fill="#0E56A7" d="M73.687,13.148h-5.094V11.85l4.977-0.001c0.225,0,0.327-0.016,0.327-0.357l-0.002-0.217h1.148
	c0.018,0.141,0.024,0.299,0.024,0.601C75.065,12.628,74.692,13.148,73.687,13.148"/>
<polygon fill="#0E56A7" points="68.593,31.245 68.593,29.835 75.065,32.289 75.065,33.35 68.593,35.816 68.593,34.399 
	73.506,32.822 "/>
<path fill="#0E56A7" d="M71.23,25.396c-0.839,0.002-1.722,0.211-1.722,1.256c0,1.097,0.718,1.402,1.722,1.461V25.396z M72.309,28.1
	c1.103-0.1,1.538-0.572,1.538-1.804c0-0.577-0.107-1.161-0.352-1.882h1.15c0.316,0.762,0.42,1.493,0.42,2.195
	c0,2.125-1.326,2.8-3.316,2.8c-1.95,0-3.323-0.749-3.323-2.8c0-2.174,1.632-2.502,3.378-2.499l0.505,0.001V28.1z"/>
<path fill="#0E56A7" d="M69.722,19.561c-0.049,0.258-0.063,0.543-0.063,0.869c0,0.48,0.107,0.901,0.261,1.227h4.993v1.294h-6.328
	v-0.867l0.35-0.126c-0.302-0.393-0.495-1.103-0.495-1.56c0-0.276,0-0.603,0.056-0.839L69.722,19.561z"/>
<path fill="#0E56A7" d="M73.001,14.198c1.008,0,2.066,0.627,2.066,2.56c0,0.604-0.162,1.515-0.352,1.978l-1.226,0.001
	c0.176-0.502,0.38-1.201,0.38-1.992c0-1.009-0.43-1.296-0.858-1.296c-0.42,0-0.694,0.148-0.784,1.125
	c-0.165,1.85-0.861,2.223-1.799,2.223c-0.944,0-2.001-0.584-2.001-2.397c0-0.573,0.077-1.26,0.369-1.912l1.197,0.001
	c-0.202,0.612-0.369,1.185-0.369,1.923c0,0.962,0.358,1.162,0.809,1.162c0.364,0,0.553-0.187,0.641-1.137
	C71.246,14.62,71.885,14.198,73.001,14.198"/>
<path fill="#0E56A7" d="M74.981,6.63c0.06,0.292,0.084,0.716,0.084,1.195c0,1.018-0.527,1.814-1.766,1.814h-3.598v1.096h-1.041
	l-0.07-1.096H67l-0.18-1.273h1.771V6.639h1.111v1.73h3.441c0.534,0,0.727-0.285,0.727-0.939c0.003-0.252-0.023-0.684-0.041-0.798
	L74.981,6.63L74.981,6.63z"/>
<polygon fill="#0E56A7" points="73.146,2.912 68.593,1.343 68.593,0 76.891,3.203 76.891,4.418 74.602,3.531 68.593,5.721 
	68.593,4.279 "/>
<path fill="#0E56A7" d="M69.634,41.788c0-0.143-0.024-1.011,0.809-1.011h4.472v-1.282h-4.445c-1.274,0-2.032,0.633-2.032,2.166
	c0,0.602,0.178,1.326,0.517,1.871l-0.352,0.125v0.854h6.312v-1.276h-4.978C69.774,42.896,69.634,42.407,69.634,41.788"/>
<path fill="#0E56A7" d="M66.75,11.542c0.475,0,0.854,0.378,0.854,0.857s-0.38,0.857-0.854,0.857c-0.487,0-0.863-0.378-0.863-0.857
	C65.887,11.919,66.263,11.542,66.75,11.542"/>
<path fill="#0E56A7" d="M41.923,0.358H2.664C1.441,0.358,0,1.552,0,2.796v28.437c0,12.488,9.944,21.307,22.208,21.307
	c12.266,0,22.208-8.818,22.208-21.307V2.924C44.419,1.68,43.146,0.358,41.923,0.358 M19.355,26.031
	c-5.427,1.41-10.944-1.769-12.327-7.095C5.646,13.608,8.924,8.148,14.351,6.741c5.424-1.407,10.944,1.77,12.325,7.097
	C28.056,19.166,24.781,24.625,19.355,26.031"/>
</svg>
