<svg xmlns="http://www.w3.org/2000/svg" width="21" height="25" viewBox="0 0 21 25">
  <path fill="#FFFFFF" d="M1.25971597,0 L19.8203571,0 C20.3977899,0 21,0.622881986 21,1.20901755 L21,14.5497762 C21,20.435529 16.2994072,25 10.5,25 C4.70210363,25 0,20.435529 0,14.5497762 L0,1.14877751 C0,0.562340748 0.681678873,0 1.25971597,0 Z M9.15099498,12.0986091 C11.715147,11.4359687 13.2643347,8.86311669 12.6116635,6.35261313 C11.9583879,3.84210958 9.34921366,2.34484345 6.78475949,3.00808626 C4.21939884,3.67132907 2.66960676,6.24418107 3.32288234,8.75468462 C3.97676226,11.264887 6.58563433,12.7627555 9.15099498,12.0986091 Z"/>
</svg>
