<svg xmlns="http://www.w3.org/2000/svg" width="85" height="75" viewBox="0 0 85 75">
  <g fill="#3C73B1">
    <path d="M59.7287382,21.0188566 L60.1216645,20.8759771 C59.7686727,20.2404831 59.5440415,19.5047602 59.5440415,18.8237723 C59.5440415,16.4268084 61.0394431,15.8560012 63.2493858,15.8560012 C65.4743038,15.8560012 66.9568694,16.5348566 66.9568694,18.9332422 C66.9568694,19.5019169 66.8256563,19.9703627 66.5746399,20.5376157 L68.9949513,20.5376157 L68.9949513,21.9905795 L59.7287382,21.9905795 L59.7287382,21.0188566 Z M63.2493858,17.3331337 C61.9821809,17.3331337 60.8811317,17.5463867 60.8811317,18.9332422 C60.8811317,19.628447 61.025894,20.1217723 61.2220005,20.5376157 L65.2938858,20.5376157 C65.3766071,20.3776759 65.6176399,19.7272542 65.6176399,18.9332422 C65.6176399,17.5463867 64.5280005,17.3331337 63.2493858,17.3331337 L63.2493858,17.3331337 Z"/>
    <polygon points="66.771 54.346 66.771 55.84 58.665 55.84 58.665 58.464 57.306 58.464 57.306 51.703 58.665 51.703 58.665 54.346"/>
    <path d="M61.7621849 46.0215639C61.097562 46.0215639 60.8814882 46.5447446 60.8814882 47.2051181 60.8814882 47.9195157 61.0397997 48.5059614 61.221644 48.8926602L66.7703899 48.8926602 66.7703899 50.337094 57.3059309 50.337094 57.3059309 48.8926602 59.9957997 48.8926602C59.7412177 48.3772988 59.5443981 47.5918169 59.5443981 47.0302506 59.5443981 45.2716241 60.3880128 44.5671783 61.8106768 44.5671783L66.7703899 44.5671783 66.7482833 46.0215639 61.7621849 46.0215639zM62.0330972 31.243841C59.4630317 31.243841 57.1047612 30.4917687 57.1047612 27.3967566 57.1047612 24.2086241 59.4630317 23.5617566 62.0330972 23.5617566 64.5967448 23.5617566 66.9543022 24.3017446 66.9557284 27.3981783 66.9557284 30.5884434 64.5938923 31.243841 62.0330972 31.243841M62.0330972 29.6842506C64.0055727 29.6842506 65.5886874 29.3586843 65.5886874 27.3875157 65.5886874 25.4177687 64.0048595 25.1192145 62.0330972 25.1192145 60.0584825 25.1192145 58.4725153 25.4362506 58.4725153 27.4052867 58.4725153 29.3764554 60.0584825 29.6842506 62.0330972 29.6842506M60.8798481 3.79718313C60.8798481 3.6344 60.8556022 2.64703855 61.7855038 2.64703855L66.7716022 2.64703855 66.7716022 1.18767711 61.8111759 1.18767711C60.3892251 1.1890988 59.5441841 1.90989398 59.5448972 3.65359277 59.5448972 4.33600241 59.7445694 5.16129157 60.1218071 5.78185783L59.729594 5.92331566 59.729594 6.89646024 66.7716022 6.89646024 66.7716022 5.44136386 61.22143 5.44136386C61.041012 5.05821928 60.8812743 4.50518313 60.8798481 3.79718313M63.8730046 13.055847C65.1038407 12.9463771 65.5930374 12.4096904 65.5930374 11.0022205 65.5930374 10.3468229 65.4689554 9.68005181 65.1972587 8.85618434L66.4844309 8.85618434C66.8359964 9.7241241 66.9557997 10.5579434 66.9543735 11.3597747 66.9557997 13.7801964 65.4739472 14.5543048 63.2490292 14.5550157 61.0768817 14.5543048 59.5458243 13.7020036 59.5458243 11.3597747 59.5451112 8.88248554 61.3621276 8.5164012 63.3117833 8.51213614L63.8730046 8.51213614 63.8730046 13.055847zM62.6728325 13.0522928L62.6728325 9.9977988C61.7372259 10.0027747 60.7509882 10.2366422 60.7509882 11.4102446 60.7509882 12.642847 61.5546686 12.9847627 62.6728325 13.0522928L62.6728325 13.0522928zM63.8730046 41.7266482C65.1038407 41.6157566 65.5930374 41.0762265 65.5930374 39.6723108 65.5930374 39.0176241 65.4689554 38.3515639 65.1972587 37.5276964L66.4844309 37.5276964C66.8359964 38.3935036 66.9557997 39.231588 66.9557997 40.0312867 66.9543735 42.4524193 65.4739472 43.2243952 63.2490292 43.2243952 61.0768817 43.2243952 59.5458243 42.372094 59.5458243 40.0298651 59.5458243 37.5504434 61.3621276 37.1815157 63.3117833 37.1815157L63.8730046 37.1815157 63.8730046 41.7266482zM62.7370128 41.7053229L62.7370128 38.6486964C61.8006931 38.6543831 60.8137423 38.8889614 60.8137423 40.0646964 60.8137423 41.2972988 61.6181358 41.6385036 62.7370128 41.7053229L62.7370128 41.7053229zM72.5404153 52.699653L78.5412759 52.699653C80.6663579 52.699653 80.8268087 53.9649542 80.8268087 54.7497253 80.8268087 55.5323639 80.6635054 56.7941108 78.5398497 56.7934L72.5404153 56.7934 72.5404153 58.236412 78.7252595 58.2378337C81.7674071 58.2406771 82.2430546 56.0669181 82.2430546 54.7497253 82.2444809 53.4318217 81.7674071 51.2530867 78.7252595 51.2530867L72.5404153 51.2545084 72.5404153 52.699653zM72.9436104 41.2240819C73.4748809 41.2226602 73.8970448 41.6470337 73.8970448 42.1773229 73.8970448 42.7090337 73.4748809 43.1305639 72.9436104 43.1305639 72.4016431 43.1305639 71.9809054 42.7090337 71.9809054 42.1773229 71.9809054 41.645612 72.3995038 41.2240819 72.9436104 41.2240819M80.6841145 42.8929289L74.9991636 42.8929289 74.9991636 41.4506277 80.5514751 41.449206C80.8046309 41.449206 80.917303 41.4335675 80.917303 41.0511337L80.917303 40.8051819 82.197344 40.8051819C82.2165981 40.9665434 82.2237292 41.1399892 82.2237292 41.4762181 82.2237292 42.3185675 81.805844 42.8943506 80.6841145 42.8929289M80.6834013 14.919394L74.9991636 14.919394 74.9991636 13.4742494 80.5536145 13.4728277C80.8046309 13.4728277 80.9187292 13.4557675 80.9187292 13.0747554L80.917303 12.8330687 82.1959177 12.8330687C82.2165981 12.9894542 82.2237292 13.1650325 82.2237292 13.5026831 82.2237292 14.3421892 81.805844 14.919394 80.6834013 14.919394"/>
    <polygon points="75 35.046 74.999 33.476 82.224 36.209 82.224 37.387 74.999 40.131 74.999 38.555 80.482 36.802"/>
    <path d="M79.1471382 31.5478687C80.3786874 31.437688 80.8643186 30.9116639 80.8643186 29.5418687 80.8643186 28.900688 80.7416628 28.2509771 80.4699661 27.4498566L81.7542858 27.4498566C82.1079907 28.2964711 82.2242284 29.1096759 82.2242284 29.8916036 82.2242284 32.2537361 80.7438022 33.0065193 78.5224497 33.0065193 76.3474497 33.0065193 74.8149661 32.1719892 74.8149661 29.8916036 74.8149661 27.4740253 76.6362612 27.1093627 78.5823513 27.112206L79.1471382 27.1136277 79.1471382 31.5478687zM77.9448268 28.5410012C77.007794 28.5438446 76.0229825 28.7755795 76.0229825 29.9378084 76.0229825 31.1583265 76.8238104 31.4981096 77.9448268 31.5627964L77.9448268 28.5410012zM76.2613054 22.0510723C76.2078218 22.3389639 76.1907071 22.6552892 76.1907071 23.0185301 76.1907071 23.5530843 76.3112235 24.0201084 76.4845104 24.3826386L82.0532235 24.3826386 82.0532235 25.8220964 74.9905349 25.8220964 74.9898218 24.8581928 75.3834612 24.7181566C75.0454448 24.280988 74.8286579 23.4905301 74.8286579 22.982988 74.8286579 22.6759036 74.8286579 22.3126627 74.8892727 22.0496506L76.2613054 22.0510723zM79.9187997 16.0877361C81.0419554 16.0877361 82.2235866 16.7836518 82.2235866 18.9346639 82.2235866 19.6064108 82.0438817 20.6186518 81.8313735 21.1340133L80.4643325 21.1354349C80.6625784 20.576712 80.8864964 19.7997602 80.8864964 18.9211578 80.8864964 17.799447 80.4087095 17.4781458 79.9316358 17.4781458 79.4616931 17.4781458 79.1543407 17.6437723 79.0545046 18.7292301 78.8719472 20.7857 78.0953653 21.2015434 77.0506522 21.2015434 75.9959554 21.2015434 74.8157505 20.5511217 74.8157505 18.534459 74.8157505 17.8961217 74.9034636 17.1326759 75.2272177 16.4083265L76.5628817 16.4097482C76.3375374 17.0900253 76.1535538 17.7276518 76.1535538 18.5493867 76.1535538 19.6184952 76.5507587 19.8409892 77.0527915 19.8409892 77.4606931 19.8409892 77.6717751 19.6341337 77.7694718 18.5763988 77.9605866 16.5568928 78.6751276 16.0877361 79.9187997 16.0877361M82.1298833 7.67078193C82.196203 7.99492651 82.2240145 8.46763735 82.2240145 9.00076988 82.2240145 10.1331434 81.637121 11.0188542 80.2529653 11.0188542L76.2395554 11.0195651 76.2395554 12.2379506 75.0757522 12.2379506 74.9994489 11.0195651 73.2259325 11.0195651 73.024121 9.60285422 74.9994489 9.60285422 75.000162 7.67931205 76.2395554 7.67931205 76.2395554 9.60285422 80.0796784 9.60285422C80.6729899 9.60285422 80.8919161 9.28723976 80.8919161 8.55933614 80.8933423 8.27784217 80.866244 7.79802289 80.8427112 7.67078193L82.1298833 7.67078193z"/>
    <polygon points="80.082 3.534 74.999 1.79 74.999 .296 84.261 3.858 84.261 5.21 81.706 4.224 74.999 6.659 74.999 5.055"/>
    <path d="M76.1631095 46.7705795C76.1631095 46.6113506 76.1374374 45.6481578 77.0644866 45.6481578L82.0534374 45.6481578 82.0534374 44.2207843 77.0937243 44.2207843C75.6724866 44.2207843 74.8267325 44.9266518 74.8267325 46.6298325 74.8267325 47.2980253 75.0249784 48.1055434 75.4029292 48.7111819L75.010003 48.8490855 75.010003 49.800194 82.0534374 49.800194 82.0534374 48.3806398 76.5011259 48.3806398C76.3192817 48.0046036 76.1631095 47.4622301 76.1631095 46.7705795M75.0399959 13.1332578C75.5712664 13.1332578 75.9934303 13.5540771 75.9934303 14.0864988 75.9934303 14.6196313 75.5712664 15.0404506 75.0399959 15.0404506 74.4980287 15.0404506 74.077291 14.6196313 74.077291 14.0864988 74.077291 13.5526554 74.4980287 13.1332578 75.0399959 13.1332578M47.3409787.695204819C48.703741.695204819 50.1249787 2.16522892 50.1249787 3.54853012L50.1249787 35.0332048C50.1249787 48.9237952 39.0303393 58.7313012 25.3435279 58.7313012 11.660282 58.7313012.564216393 48.9237952.564216393 35.0332048L.564216393 3.40636145C.564216393 2.0223494 2.17300328.695204819 3.5371918.695204819L47.3409787.695204819zM22.1608967 29.2483614C28.2123885 27.684506 31.8685279 21.6124819 30.3282 15.6876024 28.7864459 9.76272289 22.6287 6.22912048 16.5764951 7.79439759 10.5221508 9.3596747 6.86458525 15.4316988 8.40633934 21.3565783 9.94951967 27.280747 16.1065525 30.8157711 22.1608967 29.2483614zM4.8335 67.64162C4.8335 68.98762 5.5835 69.11462 7.0095 69.30162 8.7865 69.54162 9.8855 69.99362 9.8855 71.84462 9.8855 73.12662 9.2325 74.68662 6.5385 74.68662 5.7045 74.68662 4.5675 74.44762 4.0005 74.18262L4.0005 73.36662C4.5805 73.56762 5.2925 73.89362 6.5505 73.89362 8.4355 73.89362 9.0035 72.97562 9.0035 71.84462 9.0035 70.49662 8.4715 70.23362 6.9605 70.03262 4.8215 69.75462 4.0005 69.23962 4.0005 67.62962 4.0005 66.53462 4.5075 64.99962 7.0455 64.99962 8.1575 64.99962 8.9065 65.20062 9.4015 65.44062L9.4015 66.28362C8.5805 65.91762 7.9275 65.79162 7.0325 65.79162 5.2455 65.79162 4.8335 66.64762 4.8335 67.64162M13.5928 68.14352C14.1968 68.14352 14.8878 68.22052 15.4298 68.45952L15.4298 69.21352C14.9488 69.05152 14.4558 68.92452 13.5808 68.92452 12.0268 68.92452 11.8538 70.16852 11.8538 71.41552 11.8538 72.66152 12.0268 73.90652 13.5808 73.90652 14.4558 73.90652 14.9488 73.78052 15.4298 73.61852L15.4298 74.37252C14.8878 74.61152 14.1968 74.68652 13.5928 74.68652 11.5088 74.68652 10.9908 73.22752 10.9908 71.41552 10.9908 69.60452 11.5088 68.14352 13.5928 68.14352M18.9375 68.92482C17.3425 68.92482 17.2465 69.99282 17.2465 71.41582 17.2465 72.83682 17.3425 73.90582 18.9375 73.90582 20.5085 73.90582 20.6295 72.83682 20.6295 71.41582 20.6295 69.99282 20.5085 68.92482 18.9375 68.92482M18.9375 74.68682C16.8715 74.68682 16.3995 73.34082 16.3995 71.41582 16.3995 69.49082 16.8715 68.14382 18.9375 68.14382 21.0165 68.14382 21.4755 69.49082 21.4755 71.41582 21.4755 73.34082 21.0165 74.68682 18.9375 74.68682M25.853 74.63672C25.706 74.67372 25.458 74.68672 25.298 74.68672 24.275 74.68672 23.326 74.20772 23.326 72.97572L23.326 68.96172 22.091 68.96172 22.091 68.57372 23.326 68.20772 23.326 66.50972 24.188 66.25772 24.188 68.27072 26.1 68.27072 26.1 68.96172 24.188 68.96172 24.188 72.87572C24.188 73.64172 24.595 73.95572 25.372 73.95572 25.532 73.95572 25.692 73.94472 25.853 73.93272L25.853 74.63672zM27.1963 73.30172L27.1963 65.12572 28.0343 65.12572 28.0343 73.40372C28.0343 73.84272 28.1703 73.96972 28.5523 73.96972L28.5523 74.68672C27.6643 74.68672 27.1963 74.30972 27.1963 73.30172M31.6094 71.37792C30.7514 71.46592 30.3764 71.93092 30.3764 72.66092 30.3764 73.22792 30.5084 73.90592 31.6574 73.90592 32.3094 73.90592 32.7444 73.71792 33.2644 73.40292L33.2644 71.21392 31.6094 71.37792zM31.8254 68.92492C31.0164 68.92492 30.4844 69.07592 30.0134 69.23892L30.0134 68.48392C30.5454 68.24492 31.2464 68.14392 31.8254 68.14392 33.6384 68.14392 34.1094 69.00092 34.1094 70.25892L34.1094 74.56192 33.6384 74.56192 33.4574 74.05792C32.9144 74.47392 32.2374 74.68692 31.6324 74.68692 30.0494 74.68692 29.5174 73.71792 29.5174 72.66092 29.5174 71.59292 30.0864 70.79992 31.6694 70.69892L33.2644 70.59892 33.2644 70.24492C33.2644 69.32792 32.9504 68.92492 31.8254 68.92492L31.8254 68.92492zM39.0708 69.99312C39.0708 69.17712 38.6118 68.92512 37.8628 68.92512 37.0768 68.92512 36.6778 69.06312 36.2308 69.32812L36.2308 74.56112 35.3838 74.56112 35.3838 68.27012 35.8568 68.27012 36.0378 68.80012C36.6058 68.35812 37.2218 68.14312 37.8628 68.14312 39.2998 68.14312 39.9168 68.82412 39.9168 70.03212L39.9168 74.56112 39.0708 74.56112 39.0708 69.99312zM41.9844 71.41602C41.9844 72.66102 42.1694 73.90602 43.6484 73.90602 44.4504 73.90602 44.8944 73.76902 45.3754 73.50502L45.3754 69.32802C44.8944 69.06302 44.4504 68.92502 43.6484 68.92502 42.1694 68.92502 41.9844 70.16902 41.9844 71.41602M45.3754 68.66102L45.3754 65.12602 46.2384 65.12602 46.2384 74.56202 45.7574 74.56202 45.5724 74.04402C44.9314 74.46002 44.3144 74.68702 43.6484 74.68702 41.6634 74.68702 41.1204 73.22802 41.1204 71.41602 41.1204 69.60402 41.6634 68.14402 43.6484 68.14402 44.2144 68.14402 44.8444 68.30802 45.3754 68.66102"/>
  </g>
</svg>
